<svg xmlns="http://www.w3.org/2000/svg" width="264.219" height="100.5" viewBox="0 0 264.219 100.5">
  <metadata><?xpacket begin="﻿" id="W5M0MpCehiHzreSzNTczkc9d"?>
<x:xmpmeta xmlns:x="adobe:ns:meta/" x:xmptk="Adobe XMP Core 5.6-c138 79.159824, 2016/09/14-01:09:01        ">
   <rdf:RDF xmlns:rdf="http://www.w3.org/1999/02/22-rdf-syntax-ns#">
      <rdf:Description rdf:about=""/>
   </rdf:RDF>
</x:xmpmeta>
                                                                                                    
                                                                                                    
                                                                                                    
                                                                                                    
                                                                                                    
                                                                                                    
                                                                                                    
                                                                                                    
                                                                                                    
                                                                                                    
                                                                                                    
                                                                                                    
                                                                                                    
                                                                                                    
                                                                                                    
                                                                                                    
                                                                                                    
                                                                                                    
                                                                                                    
                                                                                                    
                           
<?xpacket end="w"?></metadata>
<defs>
    <style>
      .cls-1 {
        fill: #719367;
        fill-rule: evenodd;
        opacity: 0.2;
      }
    </style>
  </defs>
  <path id="About_" data-name="About " class="cls-1" d="M36.466,75.25v0.282q-0.564-.282,0-0.282l-0.094-.658a1.015,1.015,0,0,1,.282-0.752l-0.094-.094-0.282-.564-0.094.282a13.688,13.688,0,0,0-.94,3.666v0.094l0.094,0.094a1.034,1.034,0,0,0,.376.188c0.125,0.062.094,0.125-.094,0.188-0.063.062-.188,0.172-0.376,0.329a0.694,0.694,0,0,0-.282.329,2.937,2.937,0,0,0-.423,1.5,3.677,3.677,0,0,1-.235,1.316v0.564a0.433,0.433,0,0,0,.47.282l-0.094-.376a0.517,0.517,0,0,1,.188-0.282l0.094,0.094c0.125,0,.188.031,0.188,0.094a2.037,2.037,0,0,1-.376.47c0,0.25-.032.376-0.094,0.376q-1.317.564-.094,1.5a1.626,1.626,0,0,1,.094.658v0.282a0.306,0.306,0,0,0-.376-0.094c-0.063,0-.094-0.016-0.094-0.047a0.262,0.262,0,0,0-.094-0.141c-0.063-.188-0.126-0.22-0.188-0.094a8.623,8.623,0,0,0-.188,1.692L32.894,87a0.083,0.083,0,0,1,.094.094,3.971,3.971,0,0,1-.282,1.88v0.094a6.343,6.343,0,0,1-.188,2.068l0.094,0.094a4.707,4.707,0,0,1-.094,1.6l0.188,1.316a7.262,7.262,0,0,0,1.6,3.76,7.668,7.668,0,0,0,3.1,2.35l1.128,0.47a3.908,3.908,0,0,1-.752-1.786l-0.094-.658a3.842,3.842,0,0,1-.47-1.692l-0.188-.846a0.541,0.541,0,0,0-.188-0.376,0.54,0.54,0,0,1-.188-0.376,1.326,1.326,0,0,1,.188-0.752l-0.376-.752a1.121,1.121,0,0,1,.047-0.7,2.24,2.24,0,0,0,.141-0.611,4.488,4.488,0,0,1,.188-1.41,3.217,3.217,0,0,1,.188-1.316,2.709,2.709,0,0,1,.047-0.376c0.031-.188.062-0.345,0.094-0.47a0.579,0.579,0,0,1,.141-0.282,0.484,0.484,0,0,1-.188-0.752l0.282-.47a15.679,15.679,0,0,1,1.034-3.478V82.864a9.016,9.016,0,0,1,.188-1.269,5.185,5.185,0,0,0,.094-1.645,3.064,3.064,0,0,0,.611-1.457,4.087,4.087,0,0,1,.517-1.457,1,1,0,0,0,.047-0.611c-0.032-.345-0.047-0.549-0.047-0.611q1.315-1.5.658-4.23a0.272,0.272,0,0,0-.188-0.094,0.526,0.526,0,0,0-.282-0.188,1.247,1.247,0,0,0-.282.752,3.838,3.838,0,0,1-1.034,2.068V73.37l1.316-4.512h0.094a1.512,1.512,0,0,0,.094.376,3.427,3.427,0,0,0,.188.47,0.273,0.273,0,0,1,.094.376,1.527,1.527,0,0,0-.094.376,0.7,0.7,0,0,0,.47.658q0.564,0.187.564-.47l0.564-2.068a1.849,1.849,0,0,0,.329-0.846,1.883,1.883,0,0,1,.423-0.94A9.691,9.691,0,0,0,43,65.8a4.438,4.438,0,0,1,.329-1.081q1.128-3.007,1.222-3.29a0.738,0.738,0,0,0-.188-0.658,1.01,1.01,0,0,0-1.128-.188l-0.282.376V59.928a1.543,1.543,0,0,1,1.222-1.692h0.188a8.153,8.153,0,0,0,.893-0.188,0.746,0.746,0,0,0,.423-0.235,2.029,2.029,0,0,0,.188-0.611c0.062-.25.125-0.47,0.188-0.658V56.356a1.221,1.221,0,0,1,1.41-.94,1.581,1.581,0,0,1,.376.047,1.222,1.222,0,0,0,.282.047,5.388,5.388,0,0,1,1.786.47,0.945,0.945,0,0,0,1.034-.752,0.266,0.266,0,0,0,.188-0.188,0.535,0.535,0,0,0-.188-0.282,0.516,0.516,0,0,1-.188-0.282,2.347,2.347,0,0,0-1.128-2.632,1.274,1.274,0,0,0-.517-0.423A1.7,1.7,0,0,1,48.5,50.9V50.716a0.357,0.357,0,0,0,.282-0.564,0.9,0.9,0,0,1-.094-0.658,9.432,9.432,0,0,0,.846-1.786,4.047,4.047,0,0,1,.329-0.987A1.735,1.735,0,0,0,50,45.452a0.96,0.96,0,0,1,.188-0.376l0.094-.282,0.752-1.974a0.823,0.823,0,0,1,.846-0.47l0.094-.188q0.282-.187,0-0.47-0.564-.939.282-1.316a0.38,0.38,0,0,0,.376-0.47,4.764,4.764,0,0,1,.094-0.705,4.9,4.9,0,0,0,.094-0.8q1.692-4.323,2.914-6.768,0.939-2.067,2.444-5.875t2.068-5.217a43.663,43.663,0,0,1,2.35-4.888q0.187-.469.846-1.692t0.94-1.88a19.576,19.576,0,0,1,2.726-4.7l0.376-.658a3.764,3.764,0,0,1,1.5-2.162l0.846-1.316A18.6,18.6,0,0,0,66.593.9,4.118,4.118,0,0,0,65,.285a1.818,1.818,0,0,0-.8.423,0.889,0.889,0,0,0-.752.94l0.376-.094c0,0.126.125,0.188,0.376,0.188l-0.282.188-0.376.094-0.47.47V2.024h0.47l-0.094-.376c-0.376,0-.5.126-0.376,0.376a0.643,0.643,0,0,0-.47.564l0.47-.094a0.4,0.4,0,0,1-.376.376L62.6,2.588a0.929,0.929,0,0,0-.94.846A1.085,1.085,0,0,0,60.53,4.468a3.368,3.368,0,0,0-.846.282L58.838,5.972l-0.188.47a0.643,0.643,0,0,1-.47.564c-0.063-.25-0.126-0.344-0.188-0.282a0.517,0.517,0,0,0,.188.282,0.479,0.479,0,0,1-.47.188,1.6,1.6,0,0,0-.7.094,1.119,1.119,0,0,0-.235.658L57.052,8.04a1.075,1.075,0,0,0-.188.282,1.492,1.492,0,0,1-.752,1.034A0.734,0.734,0,0,0,55.83,8.7H55.642l-0.47.752,0.94-.094a0.717,0.717,0,0,1-.846.47,0.98,0.98,0,0,1-.752.94,0.548,0.548,0,0,1-.094.376,0.581,0.581,0,0,1-.235.141,0.606,0.606,0,0,0-.235.141,1.134,1.134,0,0,0-.564.282V11.518H53.2a0.165,0.165,0,0,0,.188.188,0.769,0.769,0,0,1-.752.564c0.062,0.251,0,.376-0.188.376l-0.564.564V12.74a0.972,0.972,0,0,0-.564,1.128q-0.941-.375-1.316.94a0.708,0.708,0,0,0,.282.094q0.469,0.189.188,0.282L49.062,16.5q0-.657-0.282,0h0.282a1.18,1.18,0,0,1-1.128,1.034,2.116,2.116,0,0,1-1.128,1.41c0,0.251-.094.376-0.282,0.376a0.522,0.522,0,0,1-.47.564,1.178,1.178,0,0,1-.564,1.034l-0.282.282V20.918H45.49l-0.282-.47v0.47l-0.564.094-0.094.094H44.362a0.708,0.708,0,0,0,.282.094,0.84,0.84,0,0,0,.564,0,1.788,1.788,0,0,1-.846.94,2.229,2.229,0,0,1-1.5,1.5,2.977,2.977,0,0,1-1.41,1.692L40.7,26.84a2.4,2.4,0,0,0-.564,1.034,1.285,1.285,0,0,0,.752-0.47,10.811,10.811,0,0,0,.893-1.128,10.642,10.642,0,0,1,.987-1.222l1.786-1.786a13.41,13.41,0,0,1,2.162-2.444,1.231,1.231,0,0,0,.282-0.658,3.559,3.559,0,0,1,.846-1.034l0.846-.752a18.051,18.051,0,0,1,1.739-2.115Q51.6,15,51.976,14.526a0.918,0.918,0,0,1,.282-0.329,2.774,2.774,0,0,0,.282-0.235,0.272,0.272,0,0,0,.094-0.188,0.863,0.863,0,0,1,.423-0.47,0.594,0.594,0,0,0,.329-0.282,38.225,38.225,0,0,0,3.76-3.854l0.376-.47a8.048,8.048,0,0,0,1.88-1.5q3.289-2.82,3.478-2.914V4.844l-1.5,1.6a19.327,19.327,0,0,0-4.324,4.418,6.469,6.469,0,0,0-1.222,1.081A10.5,10.5,0,0,1,54.7,13.022a29.074,29.074,0,0,0-3.666,4.136l-0.658.658a9.658,9.658,0,0,0-1.786,1.974,11.683,11.683,0,0,1-1.6,1.88q-0.753.753-2.115,2.4t-2.021,2.4Q42.387,27.028,39,31.07q-1.128,1.223-3.478,4.418a47.49,47.49,0,0,0-3.384,4.794q-0.377.659-1.645,2.4a27.307,27.307,0,0,0-1.833,2.773Q26.783,47.9,25.75,49.118a1.861,1.861,0,0,1-.47.658q-1.035.282-1.128-.094a1.158,1.158,0,0,0-.517.188,1.151,1.151,0,0,1-.517.188,0.935,0.935,0,0,1-.564.235,0.946,0.946,0,0,0-.564.235,0.783,0.783,0,0,1-.752,0,0.912,0.912,0,0,0-.658-0.094,23.488,23.488,0,0,1-3.29.94,4.532,4.532,0,0,0-1.41.188,3.363,3.363,0,0,1-1.5.752,5.789,5.789,0,0,0-1.974.564,5.992,5.992,0,0,1-1.692.94A7.633,7.633,0,0,0,7.984,55.6c-0.188.188-.392,0.408-0.611,0.658s-0.423.47-.611,0.658A1.391,1.391,0,0,1,6.1,57.3a4.346,4.346,0,0,0-1.128.752,11.716,11.716,0,0,1-.94.752A16.231,16.231,0,0,0,1.216,62l-0.376.94a0.449,0.449,0,0,0,.141.329,0.734,0.734,0,0,0,.282.188A0.75,0.75,0,0,0,1.5,63.5H1.78a10.631,10.631,0,0,1,2.068-1.222l1.786-.893a7.941,7.941,0,0,0,1.974-1.269,1.911,1.911,0,0,1,1.786-.94,1.566,1.566,0,0,0,1.034-.564,1.539,1.539,0,0,1,.94-0.564l0.282-.094a5.148,5.148,0,0,0,1.6-.376,20.743,20.743,0,0,1,2.068-.846q0.939-.187,2.538-0.376c0.25,0,.376.032,0.376,0.094a0.771,0.771,0,0,1,.188.564h0.47a0.4,0.4,0,0,1-.376.376,0.575,0.575,0,0,1-.376.658,0.674,0.674,0,0,1,.376-0.658l-0.094-.376a2.021,2.021,0,0,0-.752.47,1.484,1.484,0,0,0-.188.94H17.76a0.639,0.639,0,0,1-.188.47,0.615,0.615,0,0,0-.47.564V60.3L15.786,61.62q0-.469-0.564-0.188l-0.376.282,0.094,0.47A1.554,1.554,0,0,0,14,63.876h0.282c0.125,0.314.062,0.47-.188,0.47a0.593,0.593,0,0,0-.141.282,0.42,0.42,0,0,1-.235.282,2.049,2.049,0,0,0-.376.611c-0.126.282-.22,0.486-0.282,0.611a0.823,0.823,0,0,1-.376-0.094L12.5,65.85a1.973,1.973,0,0,0-1.034,1.692h0.47l-0.376.47a0.423,0.423,0,0,0-.047.329,0.593,0.593,0,0,1,0,.329,0.193,0.193,0,0,1-.141.188q-0.564-.846-0.752,0l-0.564.752a0.277,0.277,0,0,1,.188.094c-0.063.063-.126,0.032-0.188-0.094a0.662,0.662,0,0,0-.376.564,1.3,1.3,0,0,1-.282.658L8.83,71.3a0.894,0.894,0,0,1-.47.94q-0.282.469-.8,1.457a14.37,14.37,0,0,1-.987,1.645A9.841,9.841,0,0,1,5.54,76.566a4.346,4.346,0,0,1-.658.752,5.829,5.829,0,0,1-.8,1.692,9.084,9.084,0,0,0-.8,1.41A6.133,6.133,0,0,1,2.3,82.159q-0.8,1.08-.893,1.269a4.746,4.746,0,0,0-.658,3.478,2.279,2.279,0,0,0,.94,1.692,2.3,2.3,0,0,0,3.29,1.128,1.335,1.335,0,0,0,.94-1.316,2.618,2.618,0,0,0,0-.987,1.63,1.63,0,0,1,.094-0.987,0.612,0.612,0,0,0-.376-0.564l2.444-4.418Q8.453,80.7,9.253,79.2t1.5-2.726a25.15,25.15,0,0,1,1.457-2.256,20,20,0,0,0,1.457-2.444q0.892-1.692,1.457-2.538l0.376-.658q1.315-2.349,1.316-2.444a16.665,16.665,0,0,1,1.6-2.35l1.128-1.6A3.429,3.429,0,0,0,20.3,60.21a1.976,1.976,0,0,1,1.034-1.128,2.025,2.025,0,0,0,.846-2.068,0.706,0.706,0,0,1,.658-0.564,1.01,1.01,0,0,0,.658-0.564,1.36,1.36,0,0,1,1.222-.846l3.2-.376a1.847,1.847,0,0,0,.846.188,6.274,6.274,0,0,0,1.034-.094,5.789,5.789,0,0,1,.846-0.094,4.5,4.5,0,0,0,.893-0.141,4.652,4.652,0,0,1,.8-0.141,4.287,4.287,0,0,1,.846.188,17.434,17.434,0,0,1,3.008.094,10.4,10.4,0,0,1,2.491-.141,18.458,18.458,0,0,0,2.491-.047,0.187,0.187,0,0,1,.282.094,1.062,1.062,0,0,1,.094.47L41.636,55.7a1.146,1.146,0,0,0-.47,1.6,0.966,0.966,0,0,0-.658.94L40.6,58.612H40.7a1.9,1.9,0,0,1,.564-0.47L41.166,57.3h0.376v-0.47a0.479,0.479,0,0,1,.188-0.47,2.035,2.035,0,0,1,0,.94c0,0.126.031,0.157,0.094,0.094,0.062,0.439,0,.69-0.188.752H41.26v0.564a7.351,7.351,0,0,0-1.034,2.726,1.128,1.128,0,0,1-.658.752C39.568,62,39.5,61.9,39.38,61.9l-0.094.188c0.188,0,.282.032,0.282,0.094a3.738,3.738,0,0,1,.188,1.41,31.884,31.884,0,0,0-1.034,3.854,1.01,1.01,0,0,1-.94.846l-0.188.094c-0.188,0-.094.126,0.282,0.376a0.508,0.508,0,0,1-.188.658,4.556,4.556,0,0,1-.282,2.162l-0.188-.094a0.272,0.272,0,0,1-.094-0.188q-0.282-.377-0.47,0a0.941,0.941,0,0,0-.188,1.128,0.384,0.384,0,0,0,.376,0l0.282-.094a0.272,0.272,0,0,1,.094.188,1.794,1.794,0,0,0-.141.564,1.9,1.9,0,0,1-.141.564,0.3,0.3,0,0,1-.282.188l0.094,0.752a0.9,0.9,0,0,1-.282.658h0ZM27.724,47.8a0.3,0.3,0,0,0,.188.282q0.282,0.282.282,0l1.5-.94a1.586,1.586,0,0,0,.188-1.316l-0.846.094,0.47-.564q0.187-.282.376,0.188v0.282a3.08,3.08,0,0,0,.658-1.034,0.852,0.852,0,0,0-.094-0.376l-0.188-.282a2.705,2.705,0,0,1,1.316-1.692L31.672,43.1a0.62,0.62,0,0,0,.47.188l0.094-.094a0.671,0.671,0,0,1,.329-0.658q0.423-.375.517-0.47a1.843,1.843,0,0,0,.376-1.692,1.119,1.119,0,0,0,.658-0.235,1.249,1.249,0,0,0,0-.705,0.351,0.351,0,0,0,.188-0.282,0.229,0.229,0,0,1-.282,0V38.5l1.41-1.41a2.06,2.06,0,0,1,.752-0.376A2.139,2.139,0,0,0,37.5,35.676a1.656,1.656,0,0,0,.658-0.846,1.036,1.036,0,0,1,.376-0.188h0.188l0.752-1.786a2.116,2.116,0,0,0,1.128-1.41l0.47-.47a1.026,1.026,0,0,0,.94-0.752,7.182,7.182,0,0,1,1.41-1.692,4.41,4.41,0,0,1,1.41-1.6,4,4,0,0,0,1.128-2.162l-0.846.094q0.751-.939,1.41-1.692a1.907,1.907,0,0,1-.094.846l-0.47.752a0.722,0.722,0,0,0,.282-0.094,1.144,1.144,0,0,0,.47-0.188q0.187-.187.846-0.8a5.3,5.3,0,0,0,.94-1.081c0-.313.062-0.47,0.188-0.47q0.282-.187,3.384-3.854l1.786-1.974a0.321,0.321,0,0,0,.094-0.235V15.842l-0.282-.376V15.184a0.084,0.084,0,0,1,.094.094,1.456,1.456,0,0,1,.188.564,9.171,9.171,0,0,0,3.1-2.632,8.05,8.05,0,0,1,1.786-1.786,2.634,2.634,0,0,1-.376,1.786,4.671,4.671,0,0,0-.752,2.162q-0.564.377,0.094,0.846c0.188,0.5.094,0.752-.282,0.752q-0.377-.375-0.564-0.188a0.718,0.718,0,0,0-.094.564v0.188a2.06,2.06,0,0,1,.752-0.376,1.185,1.185,0,0,1-.658,1.222,1.07,1.07,0,0,1-.752,1.316l-0.094-.752q-0.377,0-.376.846h0.47a0.333,0.333,0,0,1-.376.376,1.526,1.526,0,0,1-.094.846,0.744,0.744,0,0,0-.094.47,0.433,0.433,0,0,1-.282.47l-0.094.47a0.444,0.444,0,0,1-.376.47l-0.188.564a1.164,1.164,0,0,1-1.222,1.128,1.2,1.2,0,0,1-.282.564,1.339,1.339,0,0,1,.423.705,1.61,1.61,0,0,1-.188.846,2.765,2.765,0,0,0-.235.611H53.1c0-.25-0.032-0.376-0.094-0.376a0.4,0.4,0,0,0-.376-0.376l-0.094.094q-0.095.189-.846,2.35l0.564,0.282a0.9,0.9,0,0,0-.141.47,1.57,1.57,0,0,1-.188.611,0.744,0.744,0,0,1-.423.329q-0.753-.469-0.752.376L50,32.386c-0.063.126-.063,0.188,0,0.188a4.016,4.016,0,0,1,.658.188h0.094a2.471,2.471,0,0,1-.094.752c-0.376.314-.564,0.282-0.564-0.094a0.277,0.277,0,0,0-.188-0.094,1.157,1.157,0,0,1-.188.517,2.217,2.217,0,0,0-.235.517,0.9,0.9,0,0,0,.141.564,0.565,0.565,0,0,1,.329.47c-0.032.126-.2,0.157-0.517,0.094q-0.377-.187-0.564.282a0.767,0.767,0,0,0,.282.47,0.38,0.38,0,0,1,.376.188,1.239,1.239,0,0,0-.188.517,0.621,0.621,0,0,1-.47.517V37.18l-0.188-.47a0.6,0.6,0,0,0-.188.564v0.188h0.376a1.012,1.012,0,0,1-.282,1.128H48.31c-0.376-.062-0.6.032-0.658,0.282l-0.47,1.034,0.094,0.658a0.474,0.474,0,0,0-.282.658q0.469,0.564-.094.846a0.345,0.345,0,0,0-.188.282q0.657,0.282.094,0.752l-0.094-.752a0.3,0.3,0,0,0-.329.141,1.2,1.2,0,0,0-.047.376,0.461,0.461,0,0,1-.094.329,0.97,0.97,0,0,0,.564.094,0.453,0.453,0,0,1-.47.376,1.907,1.907,0,0,1-.094.846l-0.094-.846q-0.659.659-.094,0.846A1.477,1.477,0,0,1,45.49,46.3a0.362,0.362,0,0,1-.047.282H44.926q-0.189-.093-0.376.564a0.484,0.484,0,0,0,0,.423,0.194,0.194,0,0,0,.282.047,0.638,0.638,0,0,1-.282.94,1.861,1.861,0,0,0,.047.329,0.762,0.762,0,0,1,0,.376,0.305,0.305,0,0,1-.329.141,1.2,1.2,0,0,1-.564.564,1.633,1.633,0,0,1-1.128.282,13.287,13.287,0,0,0-2.538-.47,0.229,0.229,0,0,1-.282,0,0.749,0.749,0,0,0-.282-0.094,4.329,4.329,0,0,1-1.786.047,8.727,8.727,0,0,0-1.974-.047q-0.095,0-.8-0.141a1.069,1.069,0,0,0-.987.141,3.259,3.259,0,0,1-2.068-.188,0.937,0.937,0,0,0-.846,0l-0.752.094-1.128.188L27.818,49.4a1.1,1.1,0,0,1-.423-0.282,1.122,1.122,0,0,0-.423-0.282,1.8,1.8,0,0,1,.752-1.034h0ZM12.543,68.9a0.3,0.3,0,0,1,0-.235,0.151,0.151,0,0,1,.141-0.094,7.407,7.407,0,0,1,1.41-2.632,19.694,19.694,0,0,0,1.692-2.914,3.667,3.667,0,0,1,1.5-1.692,1.527,1.527,0,0,1,0,.752l-0.846,1.034q-0.471.846-1.457,2.4t-1.175,1.927a7.425,7.425,0,0,1-1.316,1.88A0.731,0.731,0,0,0,12.543,68.9Zm29.469-6.157a1.67,1.67,0,0,0,.47-1.6l0.47-.188,0.282,2.068a2.432,2.432,0,0,1-.752,1.692,0.49,0.49,0,0,0-.094.564,0.3,0.3,0,0,1-.188.282l-0.282-.094-0.47-.658a0.568,0.568,0,0,1,0-.846l0.47-.47a1.95,1.95,0,0,1,.094-0.752h0Zm-21.62-6.58a0.83,0.83,0,0,1,.846-0.658h0.094a0.187,0.187,0,0,1,.094.282l-0.94,1.034v0.282a14.848,14.848,0,0,1-3.1,4.23V60.962a15.142,15.142,0,0,1,2.444-3.948,0.918,0.918,0,0,1,.658-0.188ZM34.4,35.206a1.924,1.924,0,0,0,.752-0.188,1.258,1.258,0,0,0,.094-0.658,0.3,0.3,0,0,1,.235-0.188,0.592,0.592,0,0,0,.329-0.282,1.482,1.482,0,0,1,.94-1.128,3.721,3.721,0,0,1,.846-1.128,7.837,7.837,0,0,0,.846-0.94,1.3,1.3,0,0,0,.282-1.128l-0.47.376a8.726,8.726,0,0,1-2.632,2.444c0-.25-0.094-0.282-0.282-0.094l0.094,0.094H35.62L35.338,33.42a0.971,0.971,0,0,0-.094.94,1.15,1.15,0,0,0-.846.846h0Zm-5.687,7.755a0.826,0.826,0,0,1-.329.141l-0.47.094L28.1,44.042l-1.034,1.222-1.692,1.692c0-.313-0.063-0.376-0.188-0.188l0.094,0.094,0.094,0.094a1.449,1.449,0,0,1-.846,1.316l0.094,0.188c0.062,0.126.125,0.251,0.188,0.376q0.375,0.282.47-.094A2.634,2.634,0,0,1,25.7,47.9a6.4,6.4,0,0,0,.423-0.658l1.692-2.35a0.829,0.829,0,0,0,.282-0.846l0.658-.47q0.469-.375.282-0.564C28.977,42.883,28.867,42.867,28.711,42.961ZM16.068,52.69c0-.25.062-0.376,0.188-0.376l2.82-.376q0.093,0,.987-0.141a4.172,4.172,0,0,1,1.363-.047,8.19,8.19,0,0,1-2.632.564,9.217,9.217,0,0,1-2.538.376H16.068Zm24.816,15.7-0.658.376a1.034,1.034,0,0,1,.094-0.94,5.976,5.976,0,0,0,.47-2.068l0.564-.282a0.749,0.749,0,0,1,.094.282,0.951,0.951,0,0,1,.094.423v0.329h0a2.569,2.569,0,0,0-.658,1.88h0ZM30.732,40.658A3.437,3.437,0,0,0,31.86,38.59l-0.846.094a3.814,3.814,0,0,1-.658,1.692q-0.377.189,0,.376a0.542,0.542,0,0,0,.376-0.094h0Zm7.9,33.558,0.094-.094a1.521,1.521,0,0,0,.658.94,1.03,1.03,0,0,1,.47.752,2.484,2.484,0,0,0-1.6.188,12.513,12.513,0,0,1,.376-1.786h0ZM33.552,35.394l-0.564.846a2.335,2.335,0,0,0,0,.94L34.3,35.958c0.062,0,.094-0.094.094-0.282V35.3ZM43.986,59.928h0.376q0.187,0.377.658,0.094a1.9,1.9,0,0,1,.047-0.329,2.2,2.2,0,0,0,.047-0.423,1.934,1.934,0,0,0-.47-0.564,0.96,0.96,0,0,1-.376.188,0.883,0.883,0,0,0-.47.564c-0.188.188-.126,0.345,0.188,0.47h0Zm4.136-14.1V45.734a0.405,0.405,0,0,0,0-.376L48.4,45.17a5.526,5.526,0,0,1,.423-0.517,0.449,0.449,0,0,1,.329-0.141,0.408,0.408,0,0,1,.329.188c0.094,0.126.266,0.376,0.517,0.752a1.432,1.432,0,0,0-1.41.376h-0.47Zm-0.658,2.35V47.426q0.093-.469.846-0.282l0.282,0.094h0.282q0,0.659-.47.658a3.255,3.255,0,0,1-.94.282h0ZM44.738,56.92a0.791,0.791,0,0,1,0,.564,0.915,0.915,0,0,1-.658-0.094,1.4,1.4,0,0,1,.188-0.94l0.282-.564V55.51c0.125-.25.188-0.282,0.188-0.094a0.725,0.725,0,0,1,.094.564,3.332,3.332,0,0,1-.094.94h0ZM38.722,29.566a1.788,1.788,0,0,0,1.41-1.692,2.289,2.289,0,0,0-1.41,1.692h0ZM41.636,55.7l0.752-.94h0.094c0,0.063.094,0.094,0.282,0.094a2.864,2.864,0,0,0-.188.564,1.581,1.581,0,0,1-.282.611,1,1,0,0,1-.564.329ZM37.594,78.916a1.47,1.47,0,0,1,.094-1.128,0.083,0.083,0,0,1,.094-0.094l0.094,0.094,0.47,0.282a0.911,0.911,0,0,1-.47,1.034,0.3,0.3,0,0,1-.282-0.188h0Zm0.094-45.308,0.282,0.376,0.188,0.846H36.842Zm5.875-6.251a0.87,0.87,0,0,1-.893.329,2.231,2.231,0,0,1,1.316-1.316A2.166,2.166,0,0,1,43.563,27.357ZM29.7,42.444c0.188,0,.25-0.094.188-0.282A0.715,0.715,0,0,0,29.98,41.5c0.062-.125,0-0.188-0.188-0.188l-0.47.094a0.559,0.559,0,0,0-.094.564,0.535,0.535,0,0,0,.188.376,0.708,0.708,0,0,0,.282.094h0Zm7.426,28.012a0.266,0.266,0,0,0,.188-0.188l0.094-.282a1.184,1.184,0,0,1,.282-0.564,0.61,0.61,0,0,0-.846.094l-0.094.752,0.188,0.282ZM56.112,18.944l0.846-.564-0.094-.846a1.141,1.141,0,0,0-.752,1.41h0Zm-1.5,2.914-0.47.752c-0.063.126,0.031,0.188,0.282,0.188l0.188,0.094H54.89a0.8,0.8,0,0,1,.47-0.94h0a1.206,1.206,0,0,0-.752-0.094h0ZM12.12,69.422l0.376-.094a2.926,2.926,0,0,0-.329.7,2.573,2.573,0,0,1-.517.893,1.37,1.37,0,0,1,.47-1.5h0ZM38.44,72.9l-0.564.282a1.5,1.5,0,0,1,0-.752,0.639,0.639,0,0,0,.282-0.423,1.041,1.041,0,0,1,.188-0.423,4.911,4.911,0,0,1,.094,1.222V72.9ZM52.728,34.924V34.548a0.369,0.369,0,0,1,.47-0.376l0.188,0.094a0.3,0.3,0,0,0,.282.188,0.376,0.376,0,0,0,.376,0l-0.376.376Zm-15.886,0L37.5,35.676l-0.752.094a0.743,0.743,0,0,1-.235-0.047,1.059,1.059,0,0,0-.329-0.047l0.188-.282,0.094-.188ZM27.536,50.81h0.47a0.333,0.333,0,0,1-.376.376H27.442a2.021,2.021,0,0,0-.329.047,2.572,2.572,0,0,1-.517.047l-0.094.094a0.345,0.345,0,0,1-.188-0.282L26.408,51ZM50.66,39.154v-0.47l0.188-.188,0.47-.094V38.5a1.19,1.19,0,0,1,.141.611,0.708,0.708,0,0,1-.611.141,0.266,0.266,0,0,1-.188-0.094h0ZM49.532,19.79a1.266,1.266,0,0,1,1.034-1.034,1.038,1.038,0,0,1-1.034,1.034h0ZM39.38,31.916l0.094,0.94-0.752.188a3.9,3.9,0,0,1,.658-1.128,0.386,0.386,0,0,1,.376-0.282,0.384,0.384,0,0,1-.376.282h0Zm-8.742,19.27h-0.47l-0.094-.094,0.094-.188,1.316-.188L31.578,51q-0.095,0-.94.188h0Zm1.222-12.6a0.746,0.746,0,0,0,.658-0.94q-0.753,0-.658.94h0Zm9.4-8.742a0.947,0.947,0,0,1,.564-1.034q0.093,0.941-.564,1.034h0Zm9.024,7.332a0.272,0.272,0,0,0,.094-0.188q0.093,0.095.141,0.141c0.031,0.032.015,0.047-.047,0.047a1.8,1.8,0,0,1-.094.564,0.807,0.807,0,0,1-.47.846,0.717,0.717,0,0,1,.47-0.846ZM32.612,41.6a1.353,1.353,0,0,1-.564.188A1.455,1.455,0,0,1,32.8,40.94,1.654,1.654,0,0,1,32.612,41.6ZM46.524,19.32l-0.094-.376-0.376.094a0.381,0.381,0,0,0-.188.47,0.266,0.266,0,0,0,.094.188,0.278,0.278,0,0,1,.094.188,0.642,0.642,0,0,1,.47-0.564h0ZM41.636,61.15q-0.189-.846.282-0.94a0.665,0.665,0,0,1-.282.94h0ZM52.352,36.71H51.976q-0.189-.564.188-0.658H52.54ZM40.6,63.876v0.376c0.062,0.063,0,.188-0.188.376v0.564c-0.251,0-.376-0.094-0.376-0.282l0.376-.282-0.094-.47Zm10.9-29.14a1.1,1.1,0,0,1,.282-1.034,0.9,0.9,0,0,1-.282,1.034h0ZM23.776,51.28a0.749,0.749,0,0,1,.282.094h0.188a0.889,0.889,0,0,1-.376.282,0.083,0.083,0,0,1-.094.094H23.588l-0.282-.282a0.54,0.54,0,0,0,.376-0.188h0.094ZM34.21,86.342a0.709,0.709,0,0,1-.094-0.658L34.3,85.59a1.536,1.536,0,0,0,.094.47l0.094,0.282a0.327,0.327,0,0,1-.282.282V86.342ZM47.088,48.648a1.017,1.017,0,0,1,.047-0.329,0.3,0.3,0,0,1,.329-0.141,0.514,0.514,0,0,1-.47.752A0.384,0.384,0,0,0,47.088,48.648ZM46.43,47.426a0.829,0.829,0,0,1-.282.846,0.832,0.832,0,0,1,.282-0.846h0ZM54.89,29v-0.47c0-.062.125-0.094,0.376-0.094l0.188,0.282A0.635,0.635,0,0,1,54.89,29h0ZM33.27,51.28H33.176a0.273,0.273,0,0,0-.376-0.094,1.362,1.362,0,0,1,.47-0.282h0.188L33.646,51h0.188l-0.282.282H33.27ZM45.3,50.434V50.246a0.357,0.357,0,0,1,.282-0.564v0.094a0.405,0.405,0,0,1,0,.376h0a0.324,0.324,0,0,1-.282.282h0Zm-3.29,13.63,0.376,0.094V63.97c0.188-.188.031-0.344-0.47-0.47Zm-2.726,4.512q0.187,0.659-.376.752a0.656,0.656,0,0,1,.376-0.752h0Zm4.888-20.022q-0.564.564,0.094,0.846ZM17.1,58.988l0.47-.094-0.094-.47c-0.376,0-.5.188-0.376,0.564h0ZM36.936,78.54l-0.47.188V78.352l0.376-.188ZM57.8,15.372h0.282a1.063,1.063,0,0,1-.188.846ZM46.242,50.622l0.47-.564,0.094,0.188a0.38,0.38,0,0,1-.376.47ZM37.876,73.934a0.99,0.99,0,0,1-.094.564L37.594,74.4,37.5,74.31a0.433,0.433,0,0,1,.282-0.47ZM13.624,64.44l0.47-.094L14,63.876a0.5,0.5,0,0,0-.376.564h0ZM35.056,51.28H34.868a0.083,0.083,0,0,0,.094-0.094L36.184,51a0.094,0.094,0,1,1,0,.188Zm9.306-29.14q-0.282-.469-0.94.094ZM39.286,68.012c-0.063-.062-0.063-0.094,0-0.094,0.188,0,.282.032,0.282,0.094q0.469,0.189-.282.564V68.012Zm6.862-19.74a0.829,0.829,0,0,1-.282.846,0.832,0.832,0,0,1,.282-0.846h0Zm-7.8,23.218V71.3l0.094-.188a0.27,0.27,0,0,1,.094-0.376,0.564,0.564,0,0,0,.376.376Zm15.04-60.16,0.564-.094-0.094-.376q-0.659,0-.47.47h0ZM10.9,71.208a0.083,0.083,0,0,1,.094-0.094,1.606,1.606,0,0,1,.658-0.188l-0.47.564ZM43.046,56.92l0.094-.094a0.971,0.971,0,0,1,.094-0.752l0.094-.094a0.266,0.266,0,0,0,.094.188v0.094l-0.282.564a0.383,0.383,0,0,0-.094.282c-0.188-.062-0.188-0.125,0-0.188h0ZM51.6,37.932V37.556a0.4,0.4,0,0,1,0-.376l0.188,0.094,0.094,0.47a0.351,0.351,0,0,0-.282.188h0Zm2.914-27.166q-0.282-.751-0.658,0h0.658ZM31.578,42.35q-0.189-.469.47-0.47a0.478,0.478,0,0,1-.47.47h0Zm15.134,4.324a1.221,1.221,0,0,1-.094.752,1.213,1.213,0,0,1,.094-0.752h0Zm-7.9-18.612a0.78,0.78,0,0,0,.376-0.658,0.575,0.575,0,0,0-.376.658h0Zm14.758,0.846a1.221,1.221,0,0,1-.094.752,0.877,0.877,0,0,1,.094-0.752h0ZM51.882,12.74l0.564-.094-0.094-.376a0.6,0.6,0,0,0-.47.47h0ZM52.07,32.95a0.713,0.713,0,0,1-.282.752,1.474,1.474,0,0,1,.282-0.752h0ZM41.072,62l0.094,0.094q0.375,0.659-.094.658V62ZM23.588,49.024l0.094-.094a0.59,0.59,0,0,0,.282-0.564q-0.377,0-.282.564a0.083,0.083,0,0,0-.094.094h0Zm10.246-9.776c0-.062.062-0.094,0.188-0.094l0.094,0.282H33.364c0-.125.156-0.188,0.47-0.188h0ZM40.7,25.242l-0.094.094a2.97,2.97,0,0,1,.47.094l0.282-.094-0.094-.188Zm16.45-1.692,0.47-.094a0.277,0.277,0,0,1,.188.094L57.9,23.644a0.272,0.272,0,0,0-.188.094ZM35.9,76.754a0.272,0.272,0,0,0-.188-0.094,0.919,0.919,0,0,0,.188-0.47c0.125,0,.188.031,0.188,0.094v0.47a0.119,0.119,0,0,1-.188,0h0ZM47.84,40.188q0.187,0.282,0,.282a0.554,0.554,0,0,0-.282.47l-0.094-.094a1.151,1.151,0,0,0-.188-0.282l0.564-.094V40.188ZM42.106,59.364a0.083,0.083,0,0,0,.094.094,0.956,0.956,0,0,1-.094.658l-0.094-.658ZM27.442,43.2a0.516,0.516,0,0,0-.282.564q0.469,0,.282-0.564h0ZM19.358,56.45V55.792l0.376,0.282ZM56.582,25.336v-0.47a0.264,0.264,0,0,0,.188.188h0.188l-0.282.282H56.582ZM41.73,67.448a0.6,0.6,0,0,1,0-.47l0.188,0.376a0.384,0.384,0,0,1-.094.282,0.278,0.278,0,0,0-.094-0.188h0ZM17.76,58.424a0.4,0.4,0,0,1,.376-0.376c0.062,0.188-.063.314-0.376,0.376h0Zm1.222,2.726a0.812,0.812,0,0,1-.282.564q-0.189-.564.282-0.564h0Zm30.832-18.8a0.54,0.54,0,0,1-.094-0.376,0.306,0.306,0,0,1,.094-0.376l0.094,0.658ZM45.96,49.212a0.333,0.333,0,0,1-.376.376,0.333,0.333,0,0,1,.376-0.376h0Zm8.225-18.377a0.742,0.742,0,0,1-.047-0.235l0.282-.094L54.514,30.6v0.094a0.268,0.268,0,0,1-.188.188C54.263,30.945,54.216,30.929,54.185,30.835Zm-35.3,26.179a0.615,0.615,0,0,1,.47-0.564,1.581,1.581,0,0,1-.47.564h0Zm25.1-30.644a1.893,1.893,0,0,0,.47-0.564,0.42,0.42,0,0,1-.47.564h0Zm5.264-6.016c0-.376.062-0.564,0.188-0.564a2.626,2.626,0,0,1-.188.564h0ZM32.612,37.65q0.469-.187.282-0.47c-0.188,0-.282.157-0.282,0.47h0ZM27.724,47.8c0-.25.094-0.376,0.282-0.376a0.259,0.259,0,0,1-.282.376h0ZM40.6,30.506c-0.126-.188-0.063-0.313.188-0.376,0.062,0.126,0,.251-0.188.376h0ZM37.876,67.448q0.751,0,0-.376v0.376Zm-24.534-2.82a0.881,0.881,0,0,0,.376.282l-0.094-.47Zm27.448-1.6a0.166,0.166,0,0,1,.188-0.188V63.03a0.749,0.749,0,0,1,.094.282Zm-1.88,7.05c-0.188,0-.22-0.062-0.094-0.188,0-.25.062-0.376,0.188-0.376a0.747,0.747,0,0,1-.094.47V70.08Zm12.6-52.264a0.526,0.526,0,0,1,.188-0.282ZM40.038,74.4c0,0.188-.063.282-0.188,0.282l-0.094-.376Zm-0.47-7.238a0.378,0.378,0,0,1,.188-0.376l0.094,0.282-0.094.094c0-.062-0.063-0.062-0.188,0h0Zm7.52-21.056c0.125,0.251.062,0.376-.188,0.376ZM32.8,40.94a0.408,0.408,0,0,1,.094-0.564,0.563,0.563,0,0,1-.094.564h0ZM56.488,8.04c0,0.188.125,0.282,0.376,0.282L56.77,7.946c0,0.063-.094.094-0.282,0.094h0Zm-5.17,6.11-0.282.376a0.259,0.259,0,0,1,.282-0.376h0ZM42.294,28.156a0.66,0.66,0,0,1,.376-0.282c0,0.188-.126.282-0.376,0.282h0ZM38.346,77.224q0.469-.377.47,0.188ZM49.72,15.09q0.469,0,.282-0.282a0.249,0.249,0,0,0-.282.282h0Zm-1.128,5.922a0.268,0.268,0,0,1-.188.188,0.53,0.53,0,0,1,.564-0.47,2.738,2.738,0,0,1-.376.282h0ZM37.97,76.284A0.3,0.3,0,0,0,38.158,76a0.99,0.99,0,0,1-.094.564,0.185,0.185,0,0,1-.094-0.282h0Zm-13.818-26.7q0.751,0,.094-0.376a0.842,0.842,0,0,1-.094.376h0ZM58.838,13.962l-0.094.47c-0.188-.188-0.157-0.344.094-0.47h0ZM42.67,57.766l0.188,0.188-0.188.376V57.766ZM37.312,80.89a0.824,0.824,0,0,0-.094.376q-0.659-.377.094-0.376h0ZM53.2,16.124l-0.094.094a0.536,0.536,0,0,0-.282-0.188l0.188-.282a0.535,0.535,0,0,0,.188.376h0ZM47.746,22.14q-0.189-.187.47-0.564ZM50.19,40.282V40.094h0.094l0.094,0.094-0.094.094H50.19Zm2.632-12.6a0.263,0.263,0,0,1,.188-0.376,0.379,0.379,0,0,1-.188.376h0Zm-6.674,15.98h0.188l-0.094-.47a1.043,1.043,0,0,0-.094.47h0ZM11.274,68.012a0.233,0.233,0,0,1,.282,0l-0.094-.47Zm7.426-6.3c0,0.126-.157.188-0.47,0.188a0.639,0.639,0,0,1,.47-0.188h0Zm1.316-2.35c0,0.376-.063.564-0.188,0.564a0.765,0.765,0,0,1,.188-0.564h0Zm38.822-47.94a0.842,0.842,0,0,0,.094-0.376q0.469,0.377-.094.376h0ZM43.986,57.39a0.548,0.548,0,0,1-.094.376Zm7.426-19.458c0.062,0.314.031,0.47-.094,0.47a0.524,0.524,0,0,1,.094-0.47h0Zm-6.58-12.5a0.881,0.881,0,0,1,.376-0.282c0,0.188-.126.282-0.376,0.282h0ZM12.59,66.6a0.6,0.6,0,0,1,.564-0.376ZM23.964,48.366l0.47-.094c0-.062-0.126-0.094-0.376-0.094ZM38.44,65.944c-0.126,0-.188.032-0.188,0.094l0.094,0.094v0.094a0.271,0.271,0,0,0,.188-0.094,0.278,0.278,0,0,0-.094-0.188h0ZM17.008,59.27v0.282L17.1,59.27H17.008V58.988c-0.126,0-.188.094-0.188,0.282h0.188ZM33.364,40.376H32.988l0.094-.094a0.266,0.266,0,0,0,.188-0.188,0.749,0.749,0,0,1,.094.282h0ZM51.412,29.848H51.6l-0.094-.282c-0.126,0-.157.094-0.094,0.282h0Zm-0.376,5.64c0.125,0.126.094,0.282-.094,0.47ZM14.846,63.312a0.185,0.185,0,0,1,.094-0.282c0.125,0.188.094,0.282-.094,0.282h0ZM35.808,37.556l-0.188.094L35.9,37.932Zm14.758-18.8a0.549,0.549,0,0,0,.282-0.282q0.282,0.282-.282.282h0ZM36,80.89a1.3,1.3,0,0,1,.094-0.564v0.658ZM54.42,31.822q-0.282.471-.282,0H54.42Zm-15.134,31.3-0.188.188L39.286,63.5a0.383,0.383,0,0,1,.094-0.282ZM59.5,12.74a0.744,0.744,0,0,1,.094-0.47Zm-6.2,20.68-0.094.094L53.1,33.42l0.094-.282c0.062,0,.094.094,0.094,0.282h0ZM46.618,23.08a0.351,0.351,0,0,1,.282-0.188,0.345,0.345,0,0,1-.282.188h0ZM60.53,4.562c0.125,0,.188.032,0.188,0.094l-0.094.282ZM52.352,12.27h0.282l-0.188-.376a0.842,0.842,0,0,1-.094.376h0Zm-0.846,1.6a0.807,0.807,0,0,1,.376-0.658ZM42.012,28.72a0.254,0.254,0,0,1,.141-0.188,0.25,0.25,0,0,0,.141-0.188c0,0.251-.094.376-0.282,0.376h0Zm11.374,3.854c0.062,0,.094-0.062.094-0.188q0.469,0.189,0,.282Zm1.222-6.3c0.188,0.063.219,0.126,0.094,0.188l-0.188.094Zm-32.242,29.8q-0.282-.282.094-0.282ZM58.368,15c0.062,0.126,0,.22-0.188.282,0-.188.062-0.282,0.188-0.282h0ZM46.994,49.024V49.4c-0.251-.25-0.251-0.376,0-0.376h0ZM55.642,20.26l0.188-.094-0.094-.376ZM49.25,40.376v0.282l-0.282-.188ZM16.82,59.552V59.27l-0.282.282H16.82Zm25.1,6.768,0.094-.188a0.167,0.167,0,0,1,.188.188l-0.094.094a0.277,0.277,0,0,0-.188-0.094h0Zm9.588-31.584a0.266,0.266,0,0,1-.188.188c-0.188-.125-0.126-0.188.188-0.188h0Zm8.93-29.7c0.125,0,.188-0.031.188-0.094a0.384,0.384,0,0,1-.094.282Zm2.256-2.068a0.384,0.384,0,0,1-.094.282V3.34c-0.063-.25-0.032-0.376.094-0.376h0Zm0.282,1.222A0.724,0.724,0,0,1,63.068,3.9c0.125,0.063.094,0.157-.094,0.282h0ZM47.84,17.064a0.186,0.186,0,0,0,.094-0.282ZM26.878,48.836a0.4,0.4,0,0,0,.047.188,0.428,0.428,0,0,1,.047.188c-0.314-.25-0.345-0.376-0.094-0.376h0ZM31.014,38.59l-0.094-.282-0.094.282h0.188Zm9.964-8.46c0-.188.062-0.282,0.188-0.282,0,0.188-.063.282-0.188,0.282h0Zm7.238-8.554c0-.188.062-0.282,0.188-0.282,0,0.188-.063.282-0.188,0.282h0ZM44.174,48.554H44.55l-0.188-.188ZM39.944,66.32V65.944c0.125,0.063.125,0.188,0,.376h0ZM50.566,36.334c-0.063-.188-0.032-0.282.094-0.282ZM35.056,79.856V79.574c0.125,0.188.156,0.313,0.094,0.376ZM50.1,43.384a0.376,0.376,0,0,1-.376,0H50.1Zm3.76-14.758-0.094.282c-0.126-.188-0.094-0.282.094-0.282h0ZM59.5,12.74v0.188q-0.941-.187,0-0.188h0Zm-13.066,6.2h0.376a0.083,0.083,0,0,1-.094-0.094l-0.094-.188c0,0.188-.063.282-0.188,0.282h0Zm1.316-1.6V17.44l0.188,0.094-0.094-.47a0.384,0.384,0,0,1-.094.282h0ZM33.458,35.018c-0.063,0-.094.063-0.094,0.188,0.062,0,.094.016,0.094,0.047s0.031,0.047.094,0.047Zm15.792,8.93c0,0.126-.063.126-0.188,0a0.083,0.083,0,0,1,.094-0.094ZM51.224,31.54h0.282l-0.282.094L51.13,31.54h0.094Zm0.846,1.316,0.282-.376a0.259,0.259,0,0,1-.282.376h0ZM48.216,37.65L48.4,37.744V37.462ZM20.3,59.082c0,0.126-.094.188-0.282,0.188,0-.125.094-0.188,0.282-0.188h0Zm18.8,5.17c0-.125-0.126-0.125-0.376,0H39.1Zm5.546-38.54-0.094.094a0.249,0.249,0,0,1,.282-0.282,0.266,0.266,0,0,1-.188.188h0ZM54.89,29.1v0.376c-0.251-.25-0.251-0.376,0-0.376h0ZM61.658,3.528L61.94,3.622a0.734,0.734,0,0,0-.282.094V3.528ZM58.932,13.586c0.125,0.188.094,0.282-.094,0.282ZM54.514,27.122c-0.126-.25-0.094-0.376.094-0.376-0.063,0-.094.126-0.094,0.376h0ZM51.506,14.056l-0.094.094-0.094-.282h0.188v0.188h0Zm-6.58,33.37c0.25,0.126.219,0.188-.094,0.188a0.272,0.272,0,0,0,.094-0.188h0Zm10.528-26.32a0.278,0.278,0,0,0-.094-0.188l-0.094.094a0.277,0.277,0,0,1,.188.094h0ZM20.58,58.424a0.235,0.235,0,0,1,0,.376V58.424ZM29.04,46.11v0h0Zm6.674,36.1,0.188-.094a0.119,0.119,0,0,1,0,.188ZM22.46,55.7l0.188-.376a0.263,0.263,0,0,1-.188.376h0ZM35.526,83.334H35.62c0.062,0,.094.047,0.094,0.141s-0.032.141-.094,0.141Zm17.2-48.41a0.272,0.272,0,0,0-.094.188c-0.188-.125-0.157-0.188.094-0.188h0ZM21.52,56.826c0.188,0.126.156,0.188-.094,0.188a0.272,0.272,0,0,0,.094-0.188h0ZM49.908,38.59a0.272,0.272,0,0,0-.094.188,0.272,0.272,0,0,0,.094-0.188h0ZM50.942,32.2c0.125,0.126.094,0.188-.094,0.188Zm-14.57,47.47q-0.095-.282,0-0.282l0.094,0.376ZM39.85,31.54c0.062,0,.094-0.125.094-0.376,0.062,0.251.031,0.376-.094,0.376h0ZM14.376,63.876a2.089,2.089,0,0,1,.282-0.564ZM49.438,39.53v0.094H49.344Zm0.752,1.692a0.324,0.324,0,0,1-.282.282,0.3,0.3,0,0,0,.188-0.282H50.19Zm-11.656-7.9a0.724,0.724,0,0,1,.094-0.282,0.384,0.384,0,0,1-.094.282h0Zm15.416-1.5c0-.062-0.063-0.094-0.188-0.094a0.266,0.266,0,0,0,.188.094h0ZM49.438,15.278c0,0.063.062,0.063,0.188,0l0.094-.188ZM35.15,86.718h0.188a0.277,0.277,0,0,1-.094.188ZM38.722,28.25V28.156l0.094-.094c-0.188,0-.22.063-0.094,0.188h0Zm-23.5,34.028c0-.062-0.094-0.094-0.282-0.094l0.376-.094ZM33.458,34.924a0.3,0.3,0,0,1,.282-0.188c0-.062-0.063-0.094-0.188-0.094ZM43.422,22.61V22.422H43.328ZM18.23,62.184v0.282q-0.189-.282,0-0.282h0Zm23.312-.846c-0.251,0-.251-0.062,0-0.188v0.188Zm-25-1.786c-0.251,0-.251.063,0,0.188a0.119,0.119,0,0,0,0-.188h0ZM29.322,41.41l-0.094-.188c0-.125-0.032-0.125-0.094,0h0Zm18.706-1.974H48.4l-0.376.094V39.436ZM42.764,23.644c0-.188-0.094-0.219-0.282-0.094,0.188,0,.282.032,0.282,0.094h0Zm9.024-6.3,0.094-.282c0.062,0.063.031,0.157-.094,0.282h0Zm3.29-7.708a0.271,0.271,0,0,1,.188.188L55.172,9.45ZM39.192,27.4c0.188-.062.25-0.156,0.188-0.282Zm-1.6,47.846-0.188-.188h0Zm-7.8-35.438-0.094.094a0.117,0.117,0,0,0,.188,0ZM48.968,20.636c-0.126-.125-0.094-0.188.094-0.188,0,0.126-.032.188-0.094,0.188h0Zm-14.1,62.6c-0.063.062-.126,0.031-0.188-0.094a0.272,0.272,0,0,1,.188.094h0Zm3.29-2.256,0.094-.094v0.282ZM27.066,43.76a0.272,0.272,0,0,0-.094.188c0.062,0,.094-0.062.094-0.188h0ZM9.676,70.832l-0.094-.094a0.083,0.083,0,0,0,.094.094h0ZM47.84,43.948V43.76c0-.062.031-0.062,0.094,0ZM37.312,79.856V79.95l-0.094-.094h0.094ZM55.078,25.524h0.094a0.083,0.083,0,0,1-.094.094V25.524ZM49.626,43.2l-0.094-.282a0.389,0.389,0,0,1,.094.282h0ZM19.076,61.15a0.266,0.266,0,0,0,.188-0.188,0.266,0.266,0,0,1-.188.188h0Zm-3.2-.658a0.272,0.272,0,0,0-.094.188l0.094-.094V60.492ZM37.218,80.8a0.084,0.084,0,0,0,.094-0.094c0.062,0.062.031,0.094-.094,0.094h0Zm0.564-13.348a0.083,0.083,0,0,1-.094.094h0.094V67.448ZM37.312,76.1L37.218,76a0.083,0.083,0,0,1,.094.094h0Zm31.866-27.26h0.846a2.914,2.914,0,0,1-2.162,1.88,4.25,4.25,0,0,1,.329-0.7,3.38,3.38,0,0,0,.329-0.8,5.077,5.077,0,0,0-1.316.846q-0.941.753-2.679,2.068t-2.4,1.786a3.073,3.073,0,0,1,.094-0.752,7.928,7.928,0,0,1,1.88-2.35q0.938-1.5,4.136-5.546,0.374-.657,1.974-2.914a3.676,3.676,0,0,1,.611-0.658c0.282-.25.485-0.438,0.611-0.564q0.751-1.785,2.256-.752a1.379,1.379,0,0,0,1.222,0,2.469,2.469,0,0,0,.846-0.235,3.394,3.394,0,0,1,.658-0.235q0.564-.282,2.679-1.269a21.86,21.86,0,0,0,3.055-1.645,2.482,2.482,0,0,1,1.222-.564l5.452-3.29a36.289,36.289,0,0,0,4.841-3.1q2.961-2.161,3.9-2.726,0.564-.282,3.1-1.974,3.193-2.631,7.9-5.828l0.094-.094,0.188-.188a53.887,53.887,0,0,1,5.358-4.418q2.82-1.974,7.05-7.614a2.017,2.017,0,0,0,.188-2.35A7.439,7.439,0,0,0,117.306.708a11.132,11.132,0,0,0-4.042-.47h-0.658a25.561,25.561,0,0,0-6.11,2.726q-0.846.564-2.4,1.551T101.89,5.972q-2.351,1.41-9.306,6.674a59.514,59.514,0,0,0-6.2,5.264,24.539,24.539,0,0,0-2.491,2.115q-1.551,1.458-2.115,1.927-4.889,4.794-11.28,12.314a1.435,1.435,0,0,0-.47,1.034,4.625,4.625,0,0,0,2.068-1.786q0.564-.564,2.021-2.4a33.652,33.652,0,0,1,2.3-2.679,44.223,44.223,0,0,1,4.7-4.136,1.08,1.08,0,0,1-.376,1.034L78.3,27.78q-3.856,4.137-4.7,5.264-0.659.846-1.927,2.256t-1.833,2.068A10.8,10.8,0,0,0,68.238,40a1.042,1.042,0,0,0,.47-0.094c0.188-.125.344,0,0.47,0.376a0.735,0.735,0,0,1-.094.282A0.717,0.717,0,0,1,68.238,40a3.731,3.731,0,0,0-2.068,2.632,10.6,10.6,0,0,0-2.538,2.82q-0.282.471-.752,1.128a8.265,8.265,0,0,1-.658.846,10.231,10.231,0,0,0-1.41,2.162,2.149,2.149,0,0,0-.282.564l0.94-.47a0.3,0.3,0,0,0,.188-0.235,0.688,0.688,0,0,1,.235-0.329,0.494,0.494,0,0,1,.423,0V50.34a0.718,0.718,0,0,1-.564.094H61.658a2.312,2.312,0,0,1-1.128.658,2.111,2.111,0,0,0-1.034.564,1.338,1.338,0,0,1,.752.235,0.8,0.8,0,0,1-.094.611c-0.188,0-.282.032-0.282,0.094a2.926,2.926,0,0,1,.423.329c0.094,0.094.109,0.173,0.047,0.235a2.033,2.033,0,0,1-.47,1.034,0.083,0.083,0,0,0-.094.094,0.368,0.368,0,0,1-.282-0.376V53.16a3.722,3.722,0,0,1-.752.376V52.6a6.066,6.066,0,0,0-2.162,2.914h0.564a0.859,0.859,0,0,1-.564,1.034V55.51a5.239,5.239,0,0,0-.752.7,5.522,5.522,0,0,0-.7,1.034,3.89,3.89,0,0,1-.611.893q-1.41,2.351-1.6,2.726a0.376,0.376,0,0,1-.376.188,1.321,1.321,0,0,1-.094-0.564q0.282-.564,1.128-1.927T54.8,56.544a1.917,1.917,0,0,1,.376-0.611,1.877,1.877,0,0,0,.376-0.611,1.762,1.762,0,0,0,.094-0.564,0.647,0.647,0,0,1-.376.282,1.035,1.035,0,0,0-.47.376,22,22,0,0,0-1.5,2.491,21.519,21.519,0,0,1-1.5,2.491,1.843,1.843,0,0,0,0,2.35A11.051,11.051,0,0,1,52.258,65a1,1,0,0,1,.188.376,0.724,0.724,0,0,1,.094.282q2.445,1.223,3.572.752a11.062,11.062,0,0,0,6.2-4.324,25.973,25.973,0,0,1,2.162-2.914,7.42,7.42,0,0,0,.893-0.846,12.016,12.016,0,0,0,.94-1.222q0.515-.751.7-1.034,1.22-2.067,1.222-2.162a6.674,6.674,0,0,1,1.786-1.692q5.827-3.948,6.11-4.136,2.161-1.6,6.486-4.606,0.656-.375,3.525-2.021a28.893,28.893,0,0,0,4.183-2.773,8.032,8.032,0,0,1,1.88-1.034q1.128-.469,3.478-1.645t3.572-1.645a0.791,0.791,0,0,1,.893-0.188c0.343,0.126.548,0.126,0.611,0a2.209,2.209,0,0,1,.564-0.423,1.251,1.251,0,0,1,.564-0.141,0.542,0.542,0,0,0,.376-0.094,6.482,6.482,0,0,1,.846-0.282c0.437-.125.752-0.219,0.94-0.282l0.987-.329c0.47-.156.813-0.266,1.034-0.329s0.5-.125.846-0.188a3.589,3.589,0,0,1,.987-0.047,2.284,2.284,0,0,1,.94.329,1.511,1.511,0,0,1,1.034,1.41q-0.755,4.794-2.162,6.2a0.994,0.994,0,0,0-.188.376,1.111,1.111,0,0,1-.188.282,16.307,16.307,0,0,1-3.478,5.076,3.1,3.1,0,0,1-2.538,1.222,0.3,0.3,0,0,0-.188.282h0.282q0.846,0.846,0,.846a5.26,5.26,0,0,1-1.88.752A13.107,13.107,0,0,0,97,49.447a18.587,18.587,0,0,1-2.162.611,53.917,53.917,0,0,0-6.3,2.256q-0.846.377-2.585,0.987t-2.585.987q-0.564.282-2.3,1.128a20.429,20.429,0,0,0-2.679,1.5l-0.282.094a15.883,15.883,0,0,0-3.948,2.538,1.538,1.538,0,0,1-1.128.47,0.973,0.973,0,0,1,.564-0.94,7.09,7.09,0,0,1,1.081-1.034,3.982,3.982,0,0,0,.987-1.034H75.288q-0.564.377-1.739,1.081t-2.021,1.269a15.523,15.523,0,0,0-1.5,1.128,52.934,52.934,0,0,0-4.794,4.982A8.27,8.27,0,0,0,64.1,67.73a6.08,6.08,0,0,0,.282,4.324q1.315,2.913,3.854,2.914a10.469,10.469,0,0,0,3.29-.376,2.1,2.1,0,0,1,.564-0.282,2.061,2.061,0,0,0,.658-0.376,4.97,4.97,0,0,1,1.692-1.128l2.632-1.316a6.093,6.093,0,0,0,1.269-.8,3.521,3.521,0,0,1,1.269-.7,4.436,4.436,0,0,0,1.316-.8q0.751-.61,1.034-0.8a2.744,2.744,0,0,1,1.786-1.41c0.25,0,.376-0.094.376-0.282a5.445,5.445,0,0,1,2.256-1.6A8.259,8.259,0,0,0,89.2,63.03q0.469-.469,3.948-2.914A97.253,97.253,0,0,0,103.112,51a4.276,4.276,0,0,1,2.35-1.316,4.2,4.2,0,0,0,.517-0.329,1.168,1.168,0,0,1,.423-0.235V48.836q-0.659,0-.282-0.376a6.943,6.943,0,0,1,1.41-.094,0.541,0.541,0,0,0,.376-0.188,0.854,0.854,0,0,0-.376-0.094,0.61,0.61,0,0,0-.376-0.282l-0.094-.094c-0.063-.188-0.063-0.3,0-0.329a0.34,0.34,0,0,1,.282.047h0.188a4.77,4.77,0,0,1,1.6-.188v0.188h0.094q0,0.377.658,0.376a1.511,1.511,0,0,0,.376-0.047,1.313,1.313,0,0,1,.282-0.047l-0.188-.094a0.989,0.989,0,0,0-.376-0.188h-0.752V47.238h-0.094V46.956a10.472,10.472,0,0,0-1.6-.094c-0.127,0-.188-0.094-0.188-0.282V46.486l0.752-.376a5.535,5.535,0,0,1,2.35-.376V45.64q-0.377-.093-0.7-0.141t-0.846-.094a9.056,9.056,0,0,1-.987-0.141,3.4,3.4,0,0,0,1.5-1.645,4.478,4.478,0,0,1,1.222-1.645,1.09,1.09,0,0,0,.188-0.752,15.536,15.536,0,0,1,.752-2.256c0.376-.94.625-1.629,0.752-2.068a7.188,7.188,0,0,0,.094-1.88q-0.282-1.128-.282-1.222a5.068,5.068,0,0,0-2.444-2.726l-0.94-.658a6.415,6.415,0,0,0-3.948-.752c-0.127,0-.188.094-0.188,0.282H104.8a3.928,3.928,0,0,0,1.692.282c-0.127.063-.329,0.173-0.611,0.329a1.513,1.513,0,0,1-.658.235,3.9,3.9,0,0,1-.7-0.094q-1.128.377-3.149,1.081t-3.666,1.316A23.075,23.075,0,0,0,94.84,34.36q-0.846.377-2.679,1.41a25.555,25.555,0,0,1-2.773,1.41,24.823,24.823,0,0,0-3.431,1.786q-2.21,1.317-2.867,1.692-1.223.846-3.478,2.35t-4.089,2.773q-1.833,1.269-3.431,2.4a3.034,3.034,0,0,1-2.068.658,2.734,2.734,0,0,1,.564-0.611,1.152,1.152,0,0,0,.47-0.8,2.185,2.185,0,0,0-1.88,1.41h0ZM79.612,30.694a7.573,7.573,0,0,0,.94-0.893A5.775,5.775,0,0,1,81.4,29a10.736,10.736,0,0,1,2.632-3.29q0.092-.187.564-0.94a3.767,3.767,0,0,0,.376-0.611,3.534,3.534,0,0,1,.564-0.8,3.544,3.544,0,0,0,.987-0.987q0.61-.8.8-0.987a4.216,4.216,0,0,0,1.692-1.88,49.918,49.918,0,0,1,3.854-3.478q1.41-.939,3.76-2.773t2.914-2.209Q108,5.315,112.888,3.434a1.667,1.667,0,0,0,.94-0.752,3.363,3.363,0,0,1,1.034-.564,3.212,3.212,0,0,1,1.88.47,2.173,2.173,0,0,1,.94,2.256,6.639,6.639,0,0,1-1.6,2.444l-2.726,2.726-0.47.658a1.353,1.353,0,0,0-.94.47,19.1,19.1,0,0,1-4.23,3.666,4.025,4.025,0,0,0-.47.846A0.716,0.716,0,0,0,108,15.372a33.347,33.347,0,0,0,4.888-4.23l0.188-.376a1.531,1.531,0,0,0,1.128-.376,14.136,14.136,0,0,1,2.068-2.021,11.422,11.422,0,0,0,2.068-2.115q0.188-.375.47,0c0.125,0.188.2,0.314,0.235,0.376a0.156,0.156,0,0,1-.047.188,1.676,1.676,0,0,0-1.034.987,2.58,2.58,0,0,1-.658.987,1.906,1.906,0,0,0-.846,1.128h-0.282a13.578,13.578,0,0,0-2.35,1.88q-1.5,1.41-1.88,1.692-3.856,3.291-7.9,6.2-1.692,1.317-5.264,3.76T94.84,26.088a44.988,44.988,0,0,1-3.854,2.35q-0.19.377-.658,0a6.085,6.085,0,0,1,1.5-1.222q0.564-.375,1.927-1.269a22.977,22.977,0,0,0,1.927-1.363,7.957,7.957,0,0,1,.893-0.517,1.93,1.93,0,0,0,.517-0.423,1.691,1.691,0,0,0,.47-0.94,0.9,0.9,0,0,0-.658.282q-4.138,2.633-6.674,4.606-10.247,6.393-12.6,7.708L75.57,36.71a0.633,0.633,0,0,1-.47-0.188l0.188-.282a2.56,2.56,0,0,0,.376-0.846,22.407,22.407,0,0,0,1.974-2.35,9.908,9.908,0,0,1,1.974-2.35h0Zm4.136,32.242q-1.128.941-9.588,6.3-0.282.095-.846,0.329a5.31,5.31,0,0,0-.846.423q-0.659.189-1.974,0.423t-1.974.423H67.674a0.119,0.119,0,0,1-.188,0,0.415,0.415,0,0,1-.094-0.658,9.614,9.614,0,0,1,2.35-3.1,24.83,24.83,0,0,0,4.042-3.76,17.993,17.993,0,0,1,4.23-2.538q2.256-1.128,6.11-3.572,2.725-1.692,3.948-1.692a1.042,1.042,0,0,0,.47-0.094,9.927,9.927,0,0,1,3.619-1.739q2.584-.8,2.773-0.893a12.12,12.12,0,0,0,1.88-.94h0.47a1.627,1.627,0,0,1-.094.658L93.806,55.51a42.915,42.915,0,0,1-4.794,3.666,63.409,63.409,0,0,1-5.264,3.76h0ZM125.2,44.982h-2.444a5.4,5.4,0,0,0-3.29.752,0.593,0.593,0,0,1-.611.235,0.566,0.566,0,0,1-.517-0.517,0.989,0.989,0,0,0-.376-0.188,1.837,1.837,0,0,1-1.457.658,5.65,5.65,0,0,0-1.269.188h-2.82a6.347,6.347,0,0,0-3.2.752,23.281,23.281,0,0,1,2.726.376,7.144,7.144,0,0,0,1.88-.094l0.094-.188a0.729,0.729,0,0,0,.282-0.094,1.068,1.068,0,0,0,.282-0.188l0.188-.094a2.633,2.633,0,0,0,1.786.282,1.149,1.149,0,0,1,1.034-.141,7.307,7.307,0,0,0,.94.141,5.4,5.4,0,0,1,2.35.282,1.554,1.554,0,0,0,1.128,0,1.2,1.2,0,0,1,1.222-.188,2.427,2.427,0,0,0,2.256-.376,1.085,1.085,0,0,0,.47-1.128c0-.313-0.221-0.47-0.658-0.47h0ZM65.7,41.457q2.348-2.961,2.538-3.243,1.41-1.692,1.5-1.786L70.024,35.3a8.15,8.15,0,0,0-1.786,1.692Q67.3,38.309,62.6,44.136a4.468,4.468,0,0,1-.423.611,4.807,4.807,0,0,0-.517.8,1.66,1.66,0,0,0-.188.752,1.085,1.085,0,0,0,.752-0.188Q63.35,44.418,65.7,41.457Zm9.964,28.858q-1.974,1.174-3.008,1.927a3.363,3.363,0,0,1-.8.188,2.256,2.256,0,0,0-.893.282l-0.188-.376V72.242a0.167,0.167,0,0,0,.188-0.188q1.315-.846,3.948-2.3t3.76-2.115H79.33a1.831,1.831,0,0,1-.94,1.034Q77.636,69.141,75.664,70.315Zm3.666-2.679a0.9,0.9,0,0,1,.282-0.658q2.725-1.5,3.008-1.6c0.188-.188.313-0.188,0.376,0q-0.377.753-3.008,2.256H79.33Zm15.98-16.92,0.282,0.094a1.072,1.072,0,0,0-.188.282l-0.094.094q-0.377.095-2.209,0.658t-2.773.752H89.952a0.881,0.881,0,0,0,.282-0.376,52.428,52.428,0,0,1,5.076-1.5h0ZM69.084,41.128a1.729,1.729,0,0,1-.846,1.5l-0.376.376a0.547,0.547,0,0,0-.188-0.376H66.828a2.662,2.662,0,0,1,1.034-1.41,1.68,1.68,0,0,0,1.222-.094h0Zm26.884,7.8a2,2,0,0,0,.7-0.094,0.446,0.446,0,0,0,.235-0.47A22.083,22.083,0,0,0,92.3,49.682c-0.063,0-.094.063-0.094,0.188a5.354,5.354,0,0,0,3.2-.94h0.564Zm6.862-30.174V18.85a7.755,7.755,0,0,0,3.948-2.82,17.987,17.987,0,0,0-3.948,2.726h0ZM56.582,52.6V53.16a5.891,5.891,0,0,0,2.162-2.82A5.768,5.768,0,0,0,56.582,52.6h0Zm41.172-2.115a9.229,9.229,0,0,1-1.034.282,5,5,0,0,1-1.128-.047l0.094-.282a12.421,12.421,0,0,1,3.2-.564,0.384,0.384,0,0,1-.094.282Q98.506,50.247,97.754,50.481Zm1.692-29.093a3.71,3.71,0,0,0,2.82-1.974,10.072,10.072,0,0,0-2.82,1.974h0Zm-23.03,22.09a3.851,3.851,0,0,0,2.632-1.88,5.439,5.439,0,0,0-2.632,1.88h0Zm14.194-8.46a0.249,0.249,0,0,0-.282.282l2.82-1.128,0.188-.376a4.845,4.845,0,0,0-2.726,1.222h0Zm-14.57,22a2.536,2.536,0,0,0,2.256-1.5,2.6,2.6,0,0,0-2.256,1.5h0Zm38.822-11.562a1.53,1.53,0,0,0,.376-0.094,1.567,1.567,0,0,1,.47-0.094,1.7,1.7,0,0,0-.846-0.282c-0.315,0-.8.016-1.457,0.047s-1.144.047-1.457,0.047v0.188a16.191,16.191,0,0,0,2.914.188h0ZM88.119,18.615l-0.517.517-0.376.376a0.9,0.9,0,0,1-.658-0.094A1.787,1.787,0,0,1,88.354,18,0.828,0.828,0,0,1,88.119,18.615Zm0.705,42.911a2.349,2.349,0,0,1-2.256,1.222,2.348,2.348,0,0,1,2.256-1.222h0ZM86.38,19.508L86,20.448c-0.126.063-.267,0.141-0.423,0.235s-0.3.173-.423,0.235a1.042,1.042,0,0,1-.47.094,1.679,1.679,0,0,1,1.692-1.5h0ZM60.53,47.8a2.684,2.684,0,0,0-1.5,2.068,2.305,2.305,0,0,0,1.5-2.068h0ZM72.468,60.4a3.079,3.079,0,0,1-1.974,1.41c0-.438.094-0.658,0.282-0.658a2.922,2.922,0,0,1,1.692-.752h0ZM97.566,22.7a1.83,1.83,0,0,0,1.88-1.316,2.047,2.047,0,0,0-1.88,1.316h0Zm-0.094,31.49a1.771,1.771,0,0,1-1.786,1.316,2.3,2.3,0,0,1,1.786-1.316h0Zm0.094-22.278a5.376,5.376,0,0,0,2.726-.846,2.664,2.664,0,0,0-1.974.47,0.942,0.942,0,0,0-.752.376h0Zm-9.588,19.27a4.982,4.982,0,0,0-2.444,1.034,5.073,5.073,0,0,0,2.068-.658,0.333,0.333,0,0,0,.376-0.376h0Zm-6.3-27.354A1.994,1.994,0,0,1,83,22.422a1.26,1.26,0,0,1-1.316,1.41h0ZM70.494,39.154c0-.188.156-0.282,0.47-0.282v0.376a11.558,11.558,0,0,0-1.222,1.316,1.615,1.615,0,0,1,.282-1.316,1.058,1.058,0,0,1,.47-0.094h0ZM83.09,53.16a2.717,2.717,0,0,0,2.256-.94,3.077,3.077,0,0,0-2.256.94h0Zm18.048-22.748a0.85,0.85,0,0,0-.658.658,4.488,4.488,0,0,0,1.41-.188,0.605,0.605,0,0,0,.376-0.47h-1.128ZM91.832,58.894a1.577,1.577,0,0,1-1.5,1.128,1.574,1.574,0,0,1,1.5-1.128h0Zm-6.2,4.888H84.97a2.653,2.653,0,0,1,1.6-1.034,3.48,3.48,0,0,0-.188.47,1.037,1.037,0,0,1-.188.376Zm-1.034.47a1.731,1.731,0,0,1-1.5.846,1.331,1.331,0,0,1,1.5-.846h0ZM60.53,47.8a1.158,1.158,0,0,0,.94-1.316,1.09,1.09,0,0,0-.94,1.316h0Zm12.126-1.316a1.159,1.159,0,0,0,1.128-1.034,1.012,1.012,0,0,0-1.128,1.034h0Zm-1.6.752a1.264,1.264,0,0,0,1.41-.752,1.322,1.322,0,0,0-1.41.752h0Zm9.212-6.11a1.521,1.521,0,0,0,1.41-.846,1.217,1.217,0,0,0-1.41.846h0Zm19.74,6.3c-0.815,0-1.255.126-1.316,0.376a10.662,10.662,0,0,0,1.5-.094c0-.188-0.063-0.282-0.188-0.282h0Zm-9.776,12.6a1.259,1.259,0,0,1-.094.658,1.553,1.553,0,0,1-.752.094,1.126,1.126,0,0,1,.846-0.752h0ZM74.912,44.512a1.531,1.531,0,0,0,1.128-.376q-0.941-.375-1.128.376h0ZM89.67,50.34l-0.282.376q1.22,0,1.316-.376H89.67Zm-1.6.846H88.73a1.03,1.03,0,0,0,.658-0.376,1.1,1.1,0,0,0-1.316.376h0Zm-28.2,9.964H59.778c0-.062-0.063-0.094-0.188-0.094a3.873,3.873,0,0,1,.752-0.564h0.282l-0.094.376a2.307,2.307,0,0,1-.658.282h0ZM92.02,58.236a1.258,1.258,0,0,1,.658-0.094,0.8,0.8,0,0,1-.752.752A1.245,1.245,0,0,1,92.02,58.236Zm3.572-25.662c-0.188,0-.282.126-0.282,0.376a1.332,1.332,0,0,0,1.222-.376h-0.94Zm-39.95,22a0.5,0.5,0,0,0,.564-0.376,0.372,0.372,0,0,0-.094-0.47,0.718,0.718,0,0,0-.47.846h0ZM96.626,32.386a0.488,0.488,0,0,0,.517.094,0.5,0.5,0,0,0,.329-0.564,0.807,0.807,0,0,0-.846.47h0ZM78.3,55.51a1.1,1.1,0,0,0,1.034-.47q-0.941,0-1.034.47h0Zm15.04-41.736a0.684,0.684,0,0,1,.752-0.658,0.762,0.762,0,0,1-.752.658h0Zm68.808,34.874q-0.378-.846-0.564-0.658-2.07.282-2.35,0.376a4.936,4.936,0,0,1-1.974,1.128q-3.948.941-4.23,1.034-5.172,1.035-6.862,1.316a9.544,9.544,0,0,1-4.606,0q0.091-.187,1.222-3.29,1.128-4.512-1.5-7.332a10.326,10.326,0,0,1-1.316-1.88q-0.282-.282.282-0.282a0.638,0.638,0,0,0,.376-0.611,0.474,0.474,0,0,0-.376-0.517q-0.282-.093-0.846-0.329t-0.846-.329a4,4,0,0,0-.846-0.141,1.765,1.765,0,0,0-.94.141,5.608,5.608,0,0,1-2.068.282,6.2,6.2,0,0,0-2.632,0,3.017,3.017,0,0,0-1.786.376,26.118,26.118,0,0,0-3.76,1.6A11.99,11.99,0,0,0,124.45,41.5a3.934,3.934,0,0,0-.658,2.632,3.134,3.134,0,0,1-1.222,2.632,19.179,19.179,0,0,0-1.645,1.974q-0.987,1.317-1.363,1.786a20.508,20.508,0,0,0-4.512,9.118,10.319,10.319,0,0,0-.564,2.538,6.187,6.187,0,0,0,1.6,4.183,6.028,6.028,0,0,0,4.324,2.021,12.887,12.887,0,0,0,6.11-1.6,32.561,32.561,0,0,0,4.136-2.773,43.215,43.215,0,0,1,3.666-2.585l0.376-.564,3.29-3.478a6.6,6.6,0,0,1,.47-0.7c0.124-.156.265-0.329,0.423-0.517s0.282-.329.376-0.423a1.1,1.1,0,0,1,.376-0.235c0.155-.062.265-0.109,0.329-0.141a1.167,1.167,0,0,1,.423-0.047H142.4a48.215,48.215,0,0,0,5.076-.188,24.1,24.1,0,0,1,3.572-.282,1.1,1.1,0,0,0,1.128-.658l1.128-.282,2.256-.564a2.656,2.656,0,0,1,1.128-.188l5.734-3.76Zm-30.362,8.93a40.827,40.827,0,0,1-9.212,6.3,5.491,5.491,0,0,1-2.632.564h-1.5q-1.221-.375-0.846-1.222,0.377-.751.987-2.4t0.987-2.4q1.314-2.256,2.726-5.264a42.111,42.111,0,0,1,2.162-3.948q0.186-.657.94,0.094a13.659,13.659,0,0,0,7.99,4.982,0.591,0.591,0,0,0,.282.282l0.188,0.094a0.311,0.311,0,0,1,.282.235,0.51,0.51,0,0,1,0,.423,20.285,20.285,0,0,0-2.35,2.256h0Zm5.922-6.862a1.627,1.627,0,0,1-1.88.752,26.62,26.62,0,0,1-4.982-1.222,7.669,7.669,0,0,1-3.2-1.692,2.819,2.819,0,0,0-.329-0.47c-0.158-.188-0.268-0.313-0.329-0.376a0.61,0.61,0,0,1,0-1.128l2.068-1.88q3.194-2.443,3.666-2.726a19.576,19.576,0,0,1,3.666-2.35h0.564a2.955,2.955,0,0,1,.752.658,5.051,5.051,0,0,1,1.88,5.076,11.774,11.774,0,0,1-1.88,5.358h0Zm66.645-5.123A6.182,6.182,0,0,0,202,46.862l-1.222.752q-2.914,2.163-9.024,5.828-5.358,3.761-8.648,5.64a6.881,6.881,0,0,1-4.512.94c-0.315,0-.439-0.25-0.376-0.752a44.318,44.318,0,0,1,1.927-4.183q1.36-2.679,1.833-3.9l0.47-.282a4.031,4.031,0,0,0,.893-1.269,4.311,4.311,0,0,1,.987-1.363,4.639,4.639,0,0,0,.282-1.41,1.1,1.1,0,0,0-.846-1.6,1.594,1.594,0,0,0-.47-0.235,0.811,0.811,0,0,1-.47-0.329,0.187,0.187,0,0,1-.141-0.047,0.2,0.2,0,0,0-.141-0.047c-0.127-.062-0.188-0.062-0.188,0a4.352,4.352,0,0,0-1.974.752L168.911,53.63q-3.011,1.974-8.648,6.3a2.564,2.564,0,0,1-.94.517,3.09,3.09,0,0,0-.752.329l-0.47-.282a4.86,4.86,0,0,0,.423-0.893,4.654,4.654,0,0,1,.423-0.893q0.373-.751,2.256-3.854,1.5-2.725,1.692-3.008a15.555,15.555,0,0,0,1.316-2.256l0.846-1.5a7.415,7.415,0,0,1,1.222-1.88q0.656-.282,0-0.94A1.066,1.066,0,0,0,165.9,44.7a1.537,1.537,0,0,0-2.444.188,66.387,66.387,0,0,0-6.486,9.212,17.929,17.929,0,0,0-2.35,5.358,4.895,4.895,0,0,0,1.692,5.17,1.885,1.885,0,0,0,2.632.282A16.069,16.069,0,0,0,164.4,61.9a11.666,11.666,0,0,1,1.692-1.5q3.193-2.443,4.794-3.572,0.656-.564,2.35-1.974t2.632-2.256l0.376-.094h0.094l0.094,0.094,0.094,0.094a17.918,17.918,0,0,0-.752,2.162,5.453,5.453,0,0,0-.752,3.2v1.128a3.542,3.542,0,0,0,1.316,3.1q0.091,0.189.282,0.658a3.011,3.011,0,0,0,3.572,1.222,3.484,3.484,0,0,0,.893-0.141,3.275,3.275,0,0,1,.8-0.141A16.307,16.307,0,0,0,189.4,60.4a18.418,18.418,0,0,1,1.645-1.175q1.078-.705,1.269-0.8a13.423,13.423,0,0,1,1.316-.893,6.8,6.8,0,0,0,1.222-.893,25.141,25.141,0,0,1,3.478-2.444,24.345,24.345,0,0,0,4.136-2.726,15.693,15.693,0,0,0,3.1-2.632q1.219-1.033.846-1.974A3.656,3.656,0,0,0,204.349,45.593Zm-11.468,8.6a1.113,1.113,0,0,1-1.316,1.034,1.112,1.112,0,0,1,1.316-1.034h0Zm7.238-3.29a1.8,1.8,0,0,1-1.41.94,1.049,1.049,0,0,1,1.41-.94h0Zm0.376-1.5a2.574,2.574,0,0,1-.376.846h-0.376a0.761,0.761,0,0,1-.564-0.188l0.47-.188a0.715,0.715,0,0,1,.846-0.47h0Zm-7.426,4.7a1.191,1.191,0,0,1,.564-0.658c0-.062.125-0.062,0.376,0v0.376a1.523,1.523,0,0,1-.94.282h0Zm4.042-1.41a0.736,0.736,0,0,1-.846.658,0.735,0.735,0,0,1,.846-0.658h0Zm22.747-17.108-0.094-.094a0.378,0.378,0,0,1,.376-0.188,0.889,0.889,0,0,1,.282-0.846c0.061-.062.171-0.188,0.329-0.376s0.312-.36.47-0.517a1.347,1.347,0,0,0,.329-0.517,2.364,2.364,0,0,1,.8-0.8,6.964,6.964,0,0,0,.8-0.611l0.94-.94a28.9,28.9,0,0,0,2.82-2.82l0.517-.517,0.282-.282a0.406,0.406,0,0,0,.141-0.282,0.843,0.843,0,0,1,.047-0.282,3.483,3.483,0,0,0,.094-0.517,5.657,5.657,0,0,0,.047-0.658,2.1,2.1,0,0,0-.094-0.517,2.006,2.006,0,0,1-.094-0.423,1.27,1.27,0,0,0-.094-0.658A6.464,6.464,0,0,1,227,22.892a1.162,1.162,0,0,0-.846-0.752,0.7,0.7,0,0,1-.282-0.094h-0.188a0.448,0.448,0,0,1-.235-0.094,0.59,0.59,0,0,0-.329-0.094,0.715,0.715,0,0,0-.846.47,0.4,0.4,0,0,0-.235.235,0.825,0.825,0,0,1-.329.329,13.7,13.7,0,0,1-1.128,1.222,51.068,51.068,0,0,0-4.042,4.324,4.654,4.654,0,0,1-1.128,1.128,3.317,3.317,0,0,0-.47.705,1.96,1.96,0,0,1-.564.7,22.573,22.573,0,0,0-2.256,2.538,0.409,0.409,0,0,1-.188.329,3.86,3.86,0,0,0-.423.376,1.676,1.676,0,0,0-.329.423,4.158,4.158,0,0,0-.47.611,4.63,4.63,0,0,1-.376.517,1.442,1.442,0,0,1-1.222.658h-1.88a2.062,2.062,0,0,1-1.222-.282,0.615,0.615,0,0,0-.47,0,1.823,1.823,0,0,1-1.222.282H202.28a1.543,1.543,0,0,0-.846.188,1.3,1.3,0,0,1-.564.094,8.864,8.864,0,0,1-2.068.188h-0.47a2.064,2.064,0,0,1-1.222.282h-2.256a3.042,3.042,0,0,0-1.5.282,0.727,0.727,0,0,1-.846-0.188,0.614,0.614,0,0,0-.47,0,2.5,2.5,0,0,1-1.128.282H189.12a5.866,5.866,0,0,1-2.256.282c-0.188,0-.282.032-0.282,0.094a0.38,0.38,0,0,0-.376.188,0.727,0.727,0,0,1-.846-0.188,0.792,0.792,0,0,0-.752,0,4.675,4.675,0,0,0-1.5,1.034,0.635,0.635,0,0,0-.282.564v1.128a1.619,1.619,0,0,0,.658,1.41,0.756,0.756,0,0,0,.564.376,1.961,1.961,0,0,1,1.128.188,0.446,0.446,0,0,0,.752.094,2.277,2.277,0,0,1,1.316-.282c0.251,0,.611-0.015,1.081-0.047s0.831-.047,1.081-0.047a1.751,1.751,0,0,0,.94-0.188,1.8,1.8,0,0,1,.564-0.094,4.085,4.085,0,0,1,1.081-.094,2.745,2.745,0,0,0,1.175-.188,0.77,0.77,0,0,1,.564-0.188h2.256a1.3,1.3,0,0,0,.564-0.094,2.554,2.554,0,0,1,1.222-.188c0.251,0,.643-0.015,1.175-0.047s0.925-.047,1.175-0.047h0.752a3.928,3.928,0,0,1,1.692-.282c0.124,0,.578-0.015,1.363-0.047a3.433,3.433,0,0,0,1.739-.423h2.914c0.061,0,.094.063,0.094,0.188v0.094c-0.127.188-.282,0.455-0.47,0.8s-0.346.611-.47,0.8a6.33,6.33,0,0,0-1.034,1.974v0.141c0,0.032-.033.047-0.094,0.047a0.894,0.894,0,0,1,.376.282h-0.094c-0.127,0-.188-0.094-0.188-0.282a1.339,1.339,0,0,0-.752,1.128h0.376l0.188-.282c0,0.126.03,0.188,0.094,0.188a0.385,0.385,0,0,1-.282.094,0.249,0.249,0,0,1-.282.282l-0.094-.282a0.771,0.771,0,0,0-.282.47v0.376c0.188,0,.218.063,0.094,0.188a0.084,0.084,0,0,1-.094.094,1.149,1.149,0,0,1-.282.846,1.086,1.086,0,0,1-.752.188l-0.094.094a1.131,1.131,0,0,0,.141.376c0.094,0.188.077,0.314-.047,0.376a1.371,1.371,0,0,1-.282.846l-0.188.188a3.245,3.245,0,0,1-.376.47H203.69v0.564c-0.188.314-.409,0.721-0.658,1.222a7.746,7.746,0,0,1-.658,1.128l-0.094.188-0.188.282c0,0.188-.033.282-0.094,0.282q-0.657.189-.282,0.658a13.21,13.21,0,0,1-1.034,1.974,2.224,2.224,0,0,0-.282.846,2.19,2.19,0,0,1-.282.846,2.774,2.774,0,0,0-.094.94c-0.062,0-.094.094-0.094,0.282a1.691,1.691,0,0,0-.282.846,1.994,1.994,0,0,1-.188,1.034,2.5,2.5,0,0,0-.282,1.41c0,0.314.016,0.752,0.047,1.316s0.047,1.081.047,1.551a11.678,11.678,0,0,1-.094,1.457,1.835,1.835,0,0,0,.235.658,1.82,1.82,0,0,1,.235.752,0.812,0.812,0,0,0,.282.564q0.094,0.189.376,0.658a2.754,2.754,0,0,1,.658.846,1.508,1.508,0,0,1,.235.423,1.655,1.655,0,0,0,.329.517,6.534,6.534,0,0,1,.846.752,6.584,6.584,0,0,1,1.128.846,3.01,3.01,0,0,0,1.6.846,0.912,0.912,0,0,0,1.222,0,0.532,0.532,0,0,1,.376-0.188,7.193,7.193,0,0,0,1.316-.094,2.794,2.794,0,0,1,.658-0.188,4.513,4.513,0,0,1,.564-0.094,1.98,1.98,0,0,1,1.41-.282,0.167,0.167,0,0,0,.188-0.188,13.554,13.554,0,0,0,2.632-1.222,10.655,10.655,0,0,1,.94-0.752,4.622,4.622,0,0,0,1.034-.47,9.419,9.419,0,0,1,1.128-.564,3.185,3.185,0,0,0,.893-0.658,3.749,3.749,0,0,1,1.081-.752l1.034-1.034a0.773,0.773,0,0,0,.47-0.423,0.756,0.756,0,0,1,.564-0.423c0.061-.062.376-0.47,0.94-1.222V64.722h-0.376a0.881,0.881,0,0,1-.282.376c0,0.188-.158.282-0.47,0.282,0,0.188-.033.282-0.094,0.282H220.14l0.282-.094a0.415,0.415,0,0,1,.47-0.47,0.332,0.332,0,0,1,.376-0.376,0.554,0.554,0,0,1,.282-0.47V64.44c0-.313-0.094-0.47-0.282-0.47a0.376,0.376,0,0,1-.282-0.094c-0.127-.062-0.127-0.094,0-0.094a1.757,1.757,0,0,1,.329-0.235c0.155-.094.3-0.172,0.423-0.235a1.479,1.479,0,0,0,.376-0.282l0.282-.282,1.974-1.692V60.774c0-.062-0.094-0.094-0.282-0.094a7.529,7.529,0,0,1-.94.282,0.38,0.38,0,0,1-.47.376v0.188a13.921,13.921,0,0,0-1.128,1.222l-1.692,1.128a2.314,2.314,0,0,1-.752.611,2.3,2.3,0,0,0-.752.611,1.888,1.888,0,0,1-.94.564,5.315,5.315,0,0,1-.846.752l-0.846.564a0.6,0.6,0,0,0-.47.376,0.37,0.37,0,0,1-.376.282h-1.128a0.616,0.616,0,0,1-.47.564q0,0.282-.282,0V68.106l0.282-.282a0.637,0.637,0,0,0,.47-0.188l0.094-.094a0.788,0.788,0,0,1,.423-0.329,1.553,1.553,0,0,0,.423-0.235,0.671,0.671,0,0,1,.47-0.282,1.191,1.191,0,0,0,.564-0.282,1.422,1.422,0,0,1,.658-0.752,2.047,2.047,0,0,0,.658-0.423,2.067,2.067,0,0,1,.658-0.423,6.63,6.63,0,0,0,.611-0.376,4.247,4.247,0,0,0,.611-0.47,2.492,2.492,0,0,0,1.128-.752,5.738,5.738,0,0,1,1.175-1.034q0.8-.564.893-0.658a0.764,0.764,0,0,1,.564-0.188c0-.188.155-0.282,0.47-0.282a1.578,1.578,0,0,1,.564-0.846,0.744,0.744,0,0,1,.846-0.376v0.094a0.4,0.4,0,0,1,.376-0.376,1.281,1.281,0,0,1,.47-0.752,1.149,1.149,0,0,0,.282-0.846V57.672a0.67,0.67,0,0,0-.517.282,0.714,0.714,0,0,1-.329.282,3.715,3.715,0,0,0-1.128.846A6.213,6.213,0,0,1,222.02,60.4l-0.846.846a3.281,3.281,0,0,0-.846.564,2,2,0,0,0-.47.376l-0.517.517a1.312,1.312,0,0,1-.517.329,0.249,0.249,0,0,0-.282.282,2.693,2.693,0,0,0-.235.282,2.751,2.751,0,0,1-.235.282,0.561,0.561,0,0,0-.282.141,0.632,0.632,0,0,1-.376.141,8.451,8.451,0,0,0-1.974,1.222h-0.282a2.6,2.6,0,0,1-.752.282,3.094,3.094,0,0,1-1.222,1.034,5.481,5.481,0,0,0-1.41.94,4.091,4.091,0,0,0-.564.376,4.329,4.329,0,0,1-.564.376,0.837,0.837,0,0,1-.376.094h-0.282l-0.846.564-0.282.188a1.831,1.831,0,0,0-.705.188,1.761,1.761,0,0,1-.611.188,1.822,1.822,0,0,1-.94.282,3.928,3.928,0,0,1-1.692-.282h-0.658a5.232,5.232,0,0,1-1.034-.094l-0.282-.282V68.67a0.506,0.506,0,0,0-.376-0.564,0.249,0.249,0,0,1-.282-0.282,3.1,3.1,0,0,1,.094-1.128V66.508q0.186-.093,0-0.282a0.536,0.536,0,0,1-.094-0.376,0.73,0.73,0,0,1,.047-0.235,0.813,0.813,0,0,0,.047-0.235,0.364,0.364,0,0,0,.047-0.329,1.8,1.8,0,0,1-.047-0.329,1.345,1.345,0,0,0,.188-0.752,1.822,1.822,0,0,1,.282-1.222,0.989,0.989,0,0,0,.094-0.564,1.948,1.948,0,0,1,.188-1.128,5.581,5.581,0,0,0,.376-1.222,6.95,6.95,0,0,0,1.034-2.256,0.268,0.268,0,0,1,.094-0.188V57.2a3.086,3.086,0,0,1,.564-0.846,1.688,1.688,0,0,0,.47-1.034,7.9,7.9,0,0,1,.423-0.94q0.327-.657.517-1.034l0.094-.282a1.039,1.039,0,0,1,.188-0.282,3.647,3.647,0,0,0,.47-0.658,3.943,3.943,0,0,1,.376-0.564,15.129,15.129,0,0,1,.94-1.786c0.124,0,.188-0.094.188-0.282a1.566,1.566,0,0,1,.564-1.034,2.738,2.738,0,0,1,.658-0.846q0.468-.846,1.457-2.35t1.269-1.974a2.2,2.2,0,0,1,.47-0.705,2.311,2.311,0,0,0,.47-0.7,2.2,2.2,0,0,1,.47-0.7,2.311,2.311,0,0,0,.47-0.7,1.821,1.821,0,0,1,1.41-.846,4.5,4.5,0,0,1,1.316-.282h2.35a1.311,1.311,0,0,0,.564-0.094,3.168,3.168,0,0,1,1.41-.188,22.832,22.832,0,0,1,2.35-.094h0.564a3.5,3.5,0,0,1,1.786-.282h2.726a0.767,0.767,0,0,0,.564-0.188,1.818,1.818,0,0,1,1.222-.282h5.17a2.571,2.571,0,0,0,1.316-.282H238q2.442,0,3.854-.094h3.008a1.311,1.311,0,0,0,.564-0.094,1.089,1.089,0,0,1,.752-0.188H264.32a0.544,0.544,0,0,0,.564-0.658V35.582a2.33,2.33,0,0,0-.846-1.5,0.631,0.631,0,0,1-.282-0.564,0.8,0.8,0,0,0-.47-0.47,2.548,2.548,0,0,0-1.222.188,4.017,4.017,0,0,1-1.41.094h-1.41a0.545,0.545,0,0,0-.611,0,1.157,1.157,0,0,1-.517.188,0.381,0.381,0,0,0-.376-0.188,0.642,0.642,0,0,1-.188.47l-0.094-.188a0.382,0.382,0,0,1,.282-0.094q-0.378-.751-0.752,0l-0.282.282a3.473,3.473,0,0,1-1.5-.188,0.615,0.615,0,0,0-.47,0,3.508,3.508,0,0,1-1.974,0,0.234,0.234,0,0,0-.282,0,0.269,0.269,0,0,0-.188.094,0.274,0.274,0,0,1-.188.094h-2.538a0.7,0.7,0,0,1-.282-0.094,0.31,0.31,0,0,0-.376-0.094,1.084,1.084,0,0,0-.329.094,1.155,1.155,0,0,1-.423.094,4.434,4.434,0,0,1-1.974.376h-5.546a1.337,1.337,0,0,0-.752.188,2.834,2.834,0,0,1-.846.094q-3.574,0-5.452.188h-0.658a1.633,1.633,0,0,1-1.128.282H227.19a1.9,1.9,0,0,0-.846.094,0.7,0.7,0,0,1-.846,0,1.822,1.822,0,0,1-.94.282h-4.512c0.061,0.126,0,.22-0.188.282h0Zm-0.658.564a0.725,0.725,0,0,1,.282-0.094h3.1a1.756,1.756,0,0,0,.94-0.188,1.56,1.56,0,0,1,.752-0.094,28.288,28.288,0,0,0,3.76-.188,5.256,5.256,0,0,0,1.5-.094A0.764,0.764,0,0,1,230.1,35.3h2.914a2.022,2.022,0,0,0,1.316-.282l0.188,0.094,0.188,0.094,0.282,0.094a0.522,0.522,0,0,1,.188-0.282,0.98,0.98,0,0,1,.564-0.094h4.888a1.155,1.155,0,0,0,.658-0.188,0.938,0.938,0,0,1,1.128,0c0.124,0.188.282,0.188,0.47,0a1.256,1.256,0,0,1,.658-0.094H255.86a0.391,0.391,0,0,1,.282.094l-0.094.094a0.274,0.274,0,0,1-.188.094H249a12.178,12.178,0,0,0-1.786.094,1.246,1.246,0,0,1-1.034-.094h-0.564a3.01,3.01,0,0,1-.658.282l-0.282-.094a0.756,0.756,0,0,0-.282-0.094,0.568,0.568,0,0,1-.846,0h-0.094a6.17,6.17,0,0,1-2.444.282h-2.162a2.489,2.489,0,0,0-1.41.282,1.192,1.192,0,0,1-1.128,0,0.76,0.76,0,0,0-.752,0l-0.282-.094-0.094-.094a0.281,0.281,0,0,0-.188-0.094c-0.064,0-.094.094-0.094,0.282h-0.47a14.807,14.807,0,0,1-2.726.188,2.654,2.654,0,0,0-1.692.282h-2.256A2.007,2.007,0,0,1,227,36.1a3.463,3.463,0,0,0-.8,0,1.583,1.583,0,0,0-.705.235l-0.282-.188h-0.282a3.928,3.928,0,0,1-1.692.282H222.02a4.669,4.669,0,0,0-1.692.188h-0.282a1.97,1.97,0,0,0-1.128-.188,0.387,0.387,0,0,1-.094.282l-0.188-.094a0.638,0.638,0,0,1,.47-0.188c0-.188.03-0.282,0.094-0.282h0Zm-8.084.846a0.264,0.264,0,0,0-.188.188l-0.094.094-0.282.188a0.782,0.782,0,0,0-.235.047,1.02,1.02,0,0,1-.329.047H206.7a1.763,1.763,0,0,0-.94.188,0.281,0.281,0,0,0-.094-0.188c0-.188.03-0.282,0.094-0.282a5.22,5.22,0,0,0,.658-0.047,5.056,5.056,0,0,1,.564-0.047h1.692a1.53,1.53,0,0,0,.376-0.094,1.572,1.572,0,0,1,.376-0.094,0.98,0.98,0,0,1,.564-0.094q0.186,0.564.564,0a0.725,0.725,0,0,1,.564.094h0ZM209.142,70.55a1.187,1.187,0,0,1,.658,0,1.089,1.089,0,0,0,.752.188l0.094,0.094-0.094.188a3.578,3.578,0,0,0-.517.094,2.77,2.77,0,0,0-.611.188q-0.282.187-.282,0a1.38,1.38,0,0,0-.846-0.282,1.218,1.218,0,0,1-.8-0.094,2.074,2.074,0,0,0-.517-0.188,0.7,0.7,0,0,1-.094-0.282l0.094-.094h0.752a4.032,4.032,0,0,1,1.41.188h0ZM239.6,36.9l0.188,0.094H239.6a0.6,0.6,0,0,1-.564.188h-2.726a1.6,1.6,0,0,0-.752.282l-0.094-.282a0.379,0.379,0,0,1,.094-0.282h2.256V36.71a6.1,6.1,0,0,0,1.786.188h0Zm3.572,0.094q-0.472-.282-0.564-0.094a1.3,1.3,0,0,1-1.41.094,0.083,0.083,0,0,1,.094-0.094A0.834,0.834,0,0,0,242,36.71a1.364,1.364,0,0,1,.611-0.282h0.846a0.762,0.762,0,0,1,.094.282c0,0.188-.127.282-0.376,0.282h0Zm1.786-.282a0.082,0.082,0,0,1-.094-0.094l0.094-.188h1.222l0.188,0.188-0.188.094h-1.222Zm-41.548,1.128H203.22a0.082,0.082,0,0,1-.094-0.094l0.094-.188h1.128a0.471,0.471,0,0,1,.235.094,0.448,0.448,0,0,0,.235.094,0.382,0.382,0,0,0-.282.094h-1.128Zm34.874-1.5h-0.188a0.166,0.166,0,0,1,.188-0.188h0.752c0.188,0,.282.063,0.282,0.188a0.083,0.083,0,0,0-.094.094h-0.564Zm7.614-.376V35.77h1.034l0.282,0.094a0.3,0.3,0,0,0-.282.188H245.9V35.958Zm7.379,0.564a0.448,0.448,0,0,0,.235.094,0.729,0.729,0,0,1-.282.094h-0.752a0.7,0.7,0,0,1-.282-0.094l0.282-.188h0.564A0.471,0.471,0,0,1,253.275,36.522Zm-20.351.94a0.837,0.837,0,0,1-.376.094,2.056,2.056,0,0,1-.47-0.282,0.753,0.753,0,0,0,.235-0.047,0.782,0.782,0,0,1,.235-0.047l0.094,0.094h0.282v0.188Zm-8.836.376-0.094-.094,0.094-.094a0.269,0.269,0,0,1,.188-0.094h0.376l0.188,0.188-0.188.094h-0.564Zm9.776-1.41a0.281,0.281,0,0,1,.188.094l0.094,0.094-0.094.094a0.572,0.572,0,0,1-.752,0l-0.094-.094a1.159,1.159,0,0,1,.658-0.188h0ZM202,37.838a1.035,1.035,0,0,1-.47-0.094,0.27,0.27,0,0,0,.188-0.094l0.094-.094h0.47l0.094,0.188c0,0.063-.094.094-0.282,0.094H202Zm28.012-.376c-0.127-.125-0.094-0.188.094-0.188q0.282-.187.282,0.188H230.1c0,0.063-.033.063-0.094,0h0Zm1.786-.846a0.52,0.52,0,0,1,.282-0.188,0.167,0.167,0,0,1,.188.188V36.71h-0.282c-0.127,0-.188-0.031-0.188-0.094h0Zm17.766-.846c0.124,0,.188.032,0.188,0.094l-0.188.188h-0.094l-0.188-.188c0-.062.094-0.094,0.282-0.094h0Zm7.144-1.034a0.725,0.725,0,0,1,.282-0.094,0.391,0.391,0,0,1,.282.094,0.379,0.379,0,0,1-.376.188Zm-30.738,3.1a0.281,0.281,0,0,0-.188-0.094,0.274,0.274,0,0,0,.188-0.094l0.094-.094,0.094,0.094a0.263,0.263,0,0,0,.188.094,0.729,0.729,0,0,1-.282.094h-0.094Zm-1.6-.846h-0.094l0.094-.094v0.094Zm34.31-2.068q-0.19-.187,0-0.282l0.094,0.094c-0.064,0-.094.063-0.094,0.188h0Zm-0.658-.282v0.282a0.165,0.165,0,0,1-.188-0.188Zm-6.486,1.128c0.124,0,.188.032,0.188,0.094l-0.188.188-0.094-.188a0.084,0.084,0,0,0,.094-0.094h0Zm-3.384.282a0.227,0.227,0,0,1,0-.282c0.124,0,.188.032,0.188,0.094Zm-0.376.564,0.094-.188V36.71a0.082,0.082,0,0,1-.094-0.094h0Zm-2.914-.752V35.77a0.084,0.084,0,0,1,.094.094l-0.094.188V35.864Zm-8.836.282v0.188h-0.188V36.146h0.188Zm-2.444,1.128,0.188,0.188a0.165,0.165,0,0,1-.188-0.188h0Zm-2.444-.564c-0.127-.062-0.127-0.094,0-0.094h0.094a0.083,0.083,0,0,0-.094.094h0Zm-0.188.564a0.3,0.3,0,0,1,.282.188h-0.094Zm-2.256,0h0.188l0.094,0.188h-0.094ZM227,37.556l0.188,0.188c-0.127,0-.188.032-0.188,0.094a0.082,0.082,0,0,1-.094-0.094Zm-1.222-.564,0.188-.094v0.094H225.78Zm2.068,18.894a0.554,0.554,0,0,0-.094-0.376l-0.188.094-0.094.094a0.274,0.274,0,0,1-.188.094v0.094a0.263,0.263,0,0,0,.094.188l0.094,0.094a0.37,0.37,0,0,0,.376-0.282h0Zm-2.914,4.042V59.834h0.282a0.249,0.249,0,0,0-.282-0.282v0.376Zm-0.376,0V59.834l0.282,0.282,0.094-.282v0.094h-0.376Zm-3.008,4.794c0.188,0,.282-0.062.282-0.188,0-.062-0.094-0.094-0.282-0.094v0.282Zm5.17-7.99-0.094-.094a0.173,0.173,0,1,0,.094.094h0Zm-1.034.94a0.4,0.4,0,0,0,.376-0.376,0.333,0.333,0,0,0,.376-0.376,0.333,0.333,0,0,0-.376.376,0.332,0.332,0,0,0-.376.376h0ZM205.664,46.486c-0.188,0-.282.063-0.282,0.188,0,0.063.094,0.094,0.282,0.094V46.486ZM203.5,49.87l-0.094.188a0.376,0.376,0,0,0,.282.094,0.541,0.541,0,0,0-.188-0.282h0Zm-1.41,3.1H202a0.249,0.249,0,0,0,.282.282,0.3,0.3,0,0,0-.188-0.282h0Z" transform="translate(-0.656 -0.219)"/>
</svg>
